<?xml version="1.0" encoding="UTF-8" standalone="no"?>
<!-- Created with Inkscape (http://www.inkscape.org/) -->

<svg
   version="1.1"
   id="svg1"
   width="795.03998"
   height="795.03998"
   viewBox="0 0 795.03998 795.03998"
   sodipodi:docname="1072730_OMUNMK1.eps"
   xmlns:inkscape="http://www.inkscape.org/namespaces/inkscape"
   xmlns:sodipodi="http://sodipodi.sourceforge.net/DTD/sodipodi-0.dtd"
   xmlns="http://www.w3.org/2000/svg"
   xmlns:svg="http://www.w3.org/2000/svg">
  <defs
     id="defs1">
    <clipPath
       clipPathUnits="userSpaceOnUse"
       id="clipPath128">
      <path
         d="m 2589.87,459.809 c -766.22,0 -1387.36,82.64 -1387.36,184.57 0,101.961 621.14,184.601 1387.36,184.601 766.22,0 1387.38,-82.64 1387.38,-184.601 0,-101.93 -621.16,-184.57 -1387.38,-184.57"
         id="path128" />
    </clipPath>
  </defs>
  <sodipodi:namedview
     id="namedview1"
     pagecolor="#ffffff"
     bordercolor="#000000"
     borderopacity="0.25"
     inkscape:showpageshadow="2"
     inkscape:pageopacity="0.0"
     inkscape:pagecheckerboard="0"
     inkscape:deskcolor="#d1d1d1">
    <inkscape:page
       x="0"
       y="0"
       inkscape:label="1"
       id="page1"
       width="795.03998"
       height="795.03998"
       margin="0"
       bleed="0" />
  </sodipodi:namedview>
  <g
     id="g1"
     inkscape:groupmode="layer"
     inkscape:label="1">
    <g
       id="group-R5">
      <path
         id="path2"
         d="M 5,5 H 5957.8 V 5957.8 H 5 Z"
         style="fill:#ffffff;fill-opacity:1;fill-rule:nonzero;stroke:none"
         transform="matrix(0.13333333,0,0,-0.13333333,0,795.04)" />
      <path
         id="path4"
         d="m 4054.42,4618.56 0.09,0.07 -0.9,1.24 c -47.06,66.27 -110.98,97.63 -184.02,40.12 33.63,-77.69 115.34,-77.13 184.83,-41.43"
         style="fill:#95c11f;fill-opacity:1;fill-rule:nonzero;stroke:none"
         transform="matrix(0.13333333,0,0,-0.13333333,0,795.04)" />
      <path
         id="path5"
         d="m 4054.42,4618.56 c -56.41,-1.48 -126.3,8.77 -184.83,41.43 33.63,-77.69 115.34,-77.13 184.83,-41.43"
         style="fill:#789b0d;fill-opacity:1;fill-rule:nonzero;stroke:none"
         transform="matrix(0.13333333,0,0,-0.13333333,0,795.04)" />
      <path
         id="path6"
         d="m 3865.84,4909.09 0.06,0.05 0.81,-1.26 c 42.7,-69.17 46.73,-140.28 -34.69,-185.14 -58.47,61.19 -26.16,136.25 33.82,186.35"
         style="fill:#95c11f;fill-opacity:1;fill-rule:nonzero;stroke:none"
         transform="matrix(0.13333333,0,0,-0.13333333,0,795.04)" />
      <path
         id="path7"
         d="m 3865.84,4909.09 c -23.34,-51.37 -41.07,-119.73 -33.82,-186.35 -58.47,61.19 -26.16,136.25 33.82,186.35"
         style="fill:#789b0d;fill-opacity:1;fill-rule:nonzero;stroke:none"
         transform="matrix(0.13333333,0,0,-0.13333333,0,795.04)" />
      <path
         id="path8"
         d="m 4039.67,4812.08 0.06,0.11 -1.48,0.33 c -79.61,16.38 -147.8,-4.21 -162.02,-96.09 77.55,-33.96 136.97,22.15 163.44,95.65"
         style="fill:#95c11f;fill-opacity:1;fill-rule:nonzero;stroke:none"
         transform="matrix(0.13333333,0,0,-0.13333333,0,795.04)" />
      <path
         id="path9"
         d="m 4039.67,4812.08 c -40.26,-39.56 -98.38,-79.64 -163.44,-95.65 77.55,-33.96 136.97,22.15 163.44,95.65"
         style="fill:#789b0d;fill-opacity:1;fill-rule:nonzero;stroke:none"
         transform="matrix(0.13333333,0,0,-0.13333333,0,795.04)" />
      <path
         id="path10"
         d="m 4073.5,4673.64 0.07,0.06 -0.87,1.23 c -47.05,66.25 -111.01,97.65 -184.03,40.12 33.62,-77.69 115.35,-77.12 184.83,-41.41"
         style="fill:#95c11f;fill-opacity:1;fill-rule:nonzero;stroke:none"
         transform="matrix(0.13333333,0,0,-0.13333333,0,795.04)" />
      <path
         id="path11"
         d="m 4073.5,4673.64 c -56.39,-1.47 -126.26,8.77 -184.83,41.41 33.62,-77.69 115.35,-77.12 184.83,-41.41"
         style="fill:#789b0d;fill-opacity:1;fill-rule:nonzero;stroke:none"
         transform="matrix(0.13333333,0,0,-0.13333333,0,795.04)" />
      <path
         id="path12"
         d="m 3921.76,4902.47 0.07,0.05 0.83,-1.27 c 42.73,-69.16 46.73,-140.3 -34.69,-185.17 -58.46,61.22 -26.17,136.29 33.79,186.39"
         style="fill:#95c11f;fill-opacity:1;fill-rule:nonzero;stroke:none"
         transform="matrix(0.13333333,0,0,-0.13333333,0,795.04)" />
      <path
         id="path13"
         d="m 3921.76,4902.47 c -23.32,-51.41 -41.06,-119.76 -33.79,-186.39 -58.46,61.22 -26.17,136.29 33.79,186.39"
         style="fill:#789b0d;fill-opacity:1;fill-rule:nonzero;stroke:none"
         transform="matrix(0.13333333,0,0,-0.13333333,0,795.04)" />
      <path
         id="path14"
         d="m 3921.72,4814.17 c 42.32,-44.87 118.83,-197.92 97.48,-254.12 -30.59,-80.47 -183.6,-100.72 -256.71,-113.23 -54.78,-9.39 -150.07,-10.98 -198.39,38.2 -47.9,48.63 2.01,147.52 25.42,198.72 31.85,69.53 101.48,143.15 140.14,177.06 70.18,61.55 141.8,10.97 185.59,-39.19 l 6.47,-7.44"
         style="fill:#ed0028;fill-opacity:1;fill-rule:nonzero;stroke:none"
         transform="matrix(0.13333333,0,0,-0.13333333,0,795.04)" />
      <path
         id="path15"
         d="m 3564.1,4485.02 c 48.32,-49.18 143.61,-47.59 198.39,-38.2 73.11,12.51 226.12,32.76 256.71,113.23 2.99,7.83 4.05,17.57 3.57,28.63 0,0 -14.42,-65.35 -213.51,-103.4 -20.53,-3.93 -180.92,-36.37 -253.36,9.86 2.36,-3.55 5.04,-6.97 8.2,-10.12"
         style="fill:#d3002e;fill-opacity:1;fill-rule:nonzero;stroke:none"
         transform="matrix(0.13333333,0,0,-0.13333333,0,795.04)" />
      <path
         id="path16"
         d="m 3961.13,4631.23 c 0,0 -0.27,-1.42 -1.03,-2.89 -0.78,-1.45 -2.11,-2.83 -3.71,-3.7 -1.62,-0.82 -3.5,-1.14 -5.14,-0.96 -1.65,0.21 -2.98,0.79 -2.98,0.79 0,0 0.28,1.42 1.05,2.9 0.78,1.45 2.11,2.82 3.7,3.69 1.62,0.82 3.5,1.12 5.14,0.95 1.65,-0.22 2.97,-0.78 2.97,-0.78"
         style="fill:#f7d333;fill-opacity:1;fill-rule:nonzero;stroke:none"
         transform="matrix(0.13333333,0,0,-0.13333333,0,795.04)" />
      <path
         id="path17"
         d="m 3614.16,4496.51 c 0,0 -0.29,-1.42 -1.05,-2.89 -0.79,-1.45 -2.11,-2.84 -3.72,-3.71 -1.62,-0.84 -3.51,-1.15 -5.15,-0.98 -1.64,0.22 -2.98,0.78 -2.98,0.78 0,0 0.28,1.43 1.04,2.91 0.79,1.45 2.11,2.84 3.72,3.7 1.63,0.83 3.52,1.14 5.15,0.96 1.66,-0.2 2.99,-0.77 2.99,-0.77"
         style="fill:#f7d333;fill-opacity:1;fill-rule:nonzero;stroke:none"
         transform="matrix(0.13333333,0,0,-0.13333333,0,795.04)" />
      <path
         id="path18"
         d="m 3649.24,4543.66 c 0,0 -0.28,-1.41 -1.04,-2.89 -0.78,-1.45 -2.11,-2.84 -3.71,-3.71 -1.62,-0.82 -3.5,-1.14 -5.13,-0.96 -1.66,0.22 -2.99,0.78 -2.99,0.78 0,0 0.27,1.43 1.04,2.9 0.77,1.46 2.1,2.82 3.7,3.7 1.62,0.82 3.52,1.14 5.16,0.96 1.64,-0.21 2.97,-0.78 2.97,-0.78"
         style="fill:#f7d333;fill-opacity:1;fill-rule:nonzero;stroke:none"
         transform="matrix(0.13333333,0,0,-0.13333333,0,795.04)" />
      <path
         id="path19"
         d="m 3885.32,4662.25 c 0,0 -0.28,-1.41 -1.04,-2.9 -0.77,-1.45 -2.1,-2.84 -3.7,-3.71 -1.62,-0.83 -3.51,-1.16 -5.15,-0.98 -1.64,0.21 -2.98,0.77 -2.98,0.77 0,0 0.28,1.43 1.05,2.91 0.77,1.45 2.11,2.84 3.7,3.71 1.62,0.83 3.51,1.14 5.14,0.96 1.65,-0.19 2.98,-0.76 2.98,-0.76"
         style="fill:#f7d333;fill-opacity:1;fill-rule:nonzero;stroke:none"
         transform="matrix(0.13333333,0,0,-0.13333333,0,795.04)" />
      <path
         id="path20"
         d="m 3862.62,4730.01 c 0,0 -0.3,-1.43 -1.05,-2.91 -0.79,-1.45 -2.12,-2.84 -3.71,-3.7 -1.62,-0.83 -3.5,-1.15 -5.15,-0.97 -1.64,0.21 -2.96,0.78 -2.96,0.78 0,0 0.27,1.43 1.03,2.91 0.79,1.45 2.12,2.83 3.71,3.7 1.62,0.83 3.52,1.14 5.16,0.97 1.64,-0.22 2.97,-0.78 2.97,-0.78"
         style="fill:#f7d333;fill-opacity:1;fill-rule:nonzero;stroke:none"
         transform="matrix(0.13333333,0,0,-0.13333333,0,795.04)" />
      <path
         id="path21"
         d="m 3741.74,4682.56 c 0,0 -0.28,-1.42 -1.06,-2.9 -0.77,-1.45 -2.1,-2.84 -3.7,-3.72 -1.62,-0.83 -3.5,-1.15 -5.14,-0.97 -1.66,0.21 -2.99,0.78 -2.99,0.78 0,0 0.29,1.42 1.05,2.91 0.77,1.44 2.11,2.83 3.71,3.7 1.62,0.83 3.51,1.14 5.15,0.97 1.65,-0.21 2.98,-0.77 2.98,-0.77"
         style="fill:#f7d333;fill-opacity:1;fill-rule:nonzero;stroke:none"
         transform="matrix(0.13333333,0,0,-0.13333333,0,795.04)" />
      <path
         id="path22"
         d="m 3964.49,4569.13 c 0,0 -0.29,-1.42 -1.05,-2.9 -0.78,-1.46 -2.11,-2.84 -3.71,-3.72 -1.63,-0.83 -3.53,-1.16 -5.16,-0.98 -1.66,0.22 -2.99,0.78 -2.99,0.78 0,0 0.29,1.43 1.06,2.91 0.77,1.46 2.11,2.83 3.71,3.71 1.63,0.82 3.53,1.14 5.16,0.97 1.65,-0.21 2.98,-0.77 2.98,-0.77"
         style="fill:#f7d333;fill-opacity:1;fill-rule:nonzero;stroke:none"
         transform="matrix(0.13333333,0,0,-0.13333333,0,795.04)" />
      <path
         id="path23"
         d="m 3832.46,4491.8 c 0,0 -0.27,-1.4 -1.03,-2.89 -0.78,-1.44 -2.1,-2.83 -3.7,-3.7 -1.61,-0.83 -3.49,-1.14 -5.13,-0.96 -1.65,0.21 -2.98,0.77 -2.98,0.77 0,0 0.28,1.43 1.04,2.91 0.77,1.45 2.09,2.82 3.7,3.69 1.61,0.83 3.49,1.14 5.13,0.96 1.64,-0.21 2.97,-0.78 2.97,-0.78"
         style="fill:#f7d333;fill-opacity:1;fill-rule:nonzero;stroke:none"
         transform="matrix(0.13333333,0,0,-0.13333333,0,795.04)" />
      <path
         id="path24"
         d="m 3618.57,4625.59 c 0,0 0.06,-1.58 -0.37,-3.46 -0.46,-1.87 -1.52,-3.94 -3.01,-5.61 -1.54,-1.64 -3.49,-2.9 -5.31,-3.52 -1.84,-0.6 -3.43,-0.67 -3.43,-0.67 0,0 -0.08,1.58 0.35,3.48 0.46,1.86 1.53,3.92 3.02,5.59 1.55,1.64 3.5,2.89 5.32,3.52 1.85,0.59 3.43,0.67 3.43,0.67"
         style="fill:#f7d333;fill-opacity:1;fill-rule:nonzero;stroke:none"
         transform="matrix(0.13333333,0,0,-0.13333333,0,795.04)" />
      <path
         id="path25"
         d="m 3796.29,4843.14 c 0,0 0.19,-1.43 -0.04,-3.12 -0.25,-1.65 -1.07,-3.43 -2.3,-4.84 -1.27,-1.36 -2.97,-2.33 -4.6,-2.75 -1.65,-0.38 -3.12,-0.31 -3.12,-0.31 0,0 -0.19,1.44 0.04,3.12 0.25,1.66 1.07,3.44 2.32,4.83 1.27,1.36 2.98,2.33 4.59,2.75 1.66,0.39 3.11,0.32 3.11,0.32"
         style="fill:#f7d333;fill-opacity:1;fill-rule:nonzero;stroke:none"
         transform="matrix(0.13333333,0,0,-0.13333333,0,795.04)" />
      <path
         id="path26"
         d="m 3790.88,4754.21 c 0,0 -0.33,-1.66 -1.26,-3.59 -0.95,-1.89 -2.59,-3.94 -4.59,-5.5 -2.02,-1.54 -4.41,-2.62 -6.49,-3.06 -2.09,-0.41 -3.79,-0.3 -3.79,-0.3 0,0 0.33,1.67 1.25,3.6 0.95,1.89 2.59,3.92 4.61,5.48 2.03,1.55 4.41,2.62 6.48,3.06 2.09,0.41 3.79,0.31 3.79,0.31"
         style="fill:#f7d333;fill-opacity:1;fill-rule:nonzero;stroke:none"
         transform="matrix(0.13333333,0,0,-0.13333333,0,795.04)" />
      <path
         id="path27"
         d="m 3593.5,4564.36 c 0,0 -0.34,-1.66 -1.25,-3.57 -0.96,-1.9 -2.6,-3.93 -4.59,-5.49 -2.03,-1.54 -4.42,-2.62 -6.49,-3.05 -2.09,-0.4 -3.79,-0.28 -3.79,-0.28 0,0 0.33,1.67 1.25,3.58 0.95,1.9 2.6,3.92 4.6,5.49 2.02,1.53 4.41,2.6 6.48,3.03 2.09,0.41 3.79,0.29 3.79,0.29"
         style="fill:#f7d333;fill-opacity:1;fill-rule:nonzero;stroke:none"
         transform="matrix(0.13333333,0,0,-0.13333333,0,795.04)" />
      <path
         id="path28"
         d="m 3817.34,4663.44 c 0,0 -0.31,-1.66 -1.25,-3.57 -0.93,-1.89 -2.58,-3.93 -4.58,-5.5 -2.02,-1.53 -4.4,-2.61 -6.47,-3.03 -2.09,-0.42 -3.79,-0.3 -3.79,-0.3 0,0 0.32,1.67 1.25,3.6 0.95,1.89 2.6,3.9 4.59,5.47 2.03,1.54 4.4,2.6 6.48,3.04 2.09,0.41 3.77,0.29 3.77,0.29"
         style="fill:#f7d333;fill-opacity:1;fill-rule:nonzero;stroke:none"
         transform="matrix(0.13333333,0,0,-0.13333333,0,795.04)" />
      <path
         id="path29"
         d="m 3726.09,4605.26 c 0,0 -0.32,-1.66 -1.25,-3.58 -0.94,-1.89 -2.58,-3.92 -4.59,-5.49 -2.02,-1.53 -4.39,-2.61 -6.46,-3.04 -2.1,-0.41 -3.8,-0.29 -3.8,-0.29 0,0 0.32,1.66 1.25,3.59 0.95,1.89 2.59,3.91 4.59,5.48 2.02,1.53 4.41,2.6 6.47,3.04 2.1,0.41 3.79,0.29 3.79,0.29"
         style="fill:#f7d333;fill-opacity:1;fill-rule:nonzero;stroke:none"
         transform="matrix(0.13333333,0,0,-0.13333333,0,795.04)" />
      <path
         id="path30"
         d="m 3809.37,4590.57 c 0,0 -0.33,-1.66 -1.25,-3.59 -0.96,-1.89 -2.6,-3.93 -4.6,-5.51 -2.04,-1.54 -4.42,-2.62 -6.49,-3.06 -2.09,-0.41 -3.79,-0.3 -3.79,-0.3 0,0 0.31,1.67 1.25,3.6 0.94,1.89 2.6,3.92 4.59,5.5 2.04,1.54 4.44,2.62 6.5,3.05 2.1,0.42 3.79,0.31 3.79,0.31"
         style="fill:#f7d333;fill-opacity:1;fill-rule:nonzero;stroke:none"
         transform="matrix(0.13333333,0,0,-0.13333333,0,795.04)" />
      <path
         id="path31"
         d="m 3889.85,4599.66 c 0,0 -0.65,-1.57 -1.94,-3.27 -1.31,-1.66 -3.34,-3.34 -5.61,-4.47 -2.3,-1.1 -4.85,-1.69 -6.97,-1.7 -2.13,0.02 -3.76,0.47 -3.76,0.47 0,0 0.65,1.57 1.95,3.27 1.3,1.67 3.32,3.33 5.6,4.46 2.3,1.11 4.84,1.68 6.97,1.7 2.13,-0.02 3.76,-0.46 3.76,-0.46"
         style="fill:#f7d333;fill-opacity:1;fill-rule:nonzero;stroke:none"
         transform="matrix(0.13333333,0,0,-0.13333333,0,795.04)" />
      <path
         id="path32"
         d="m 3739.47,4794.48 c 0,0 -0.04,-1.7 -0.61,-3.75 -0.61,-2.01 -1.87,-4.3 -3.57,-6.19 -1.73,-1.87 -3.88,-3.34 -5.84,-4.12 -2,-0.76 -3.68,-0.94 -3.68,-0.94 0,0 0.03,1.7 0.61,3.75 0.6,2.03 1.86,4.31 3.56,6.19 1.74,1.85 3.9,3.32 5.86,4.12 1.99,0.76 3.67,0.94 3.67,0.94"
         style="fill:#f7d333;fill-opacity:1;fill-rule:nonzero;stroke:none"
         transform="matrix(0.13333333,0,0,-0.13333333,0,795.04)" />
      <path
         id="path33"
         d="m 3683.42,4673.46 c 0,0 -0.02,-1.7 -0.6,-3.75 -0.61,-2.02 -1.87,-4.31 -3.56,-6.21 -1.72,-1.86 -3.88,-3.34 -5.85,-4.14 -1.98,-0.76 -3.68,-0.94 -3.68,-0.94 0,0 0.02,1.69 0.59,3.75 0.61,2.03 1.88,4.31 3.57,6.21 1.74,1.86 3.9,3.33 5.86,4.13 1.99,0.76 3.67,0.95 3.67,0.95"
         style="fill:#f7d333;fill-opacity:1;fill-rule:nonzero;stroke:none"
         transform="matrix(0.13333333,0,0,-0.13333333,0,795.04)" />
      <path
         id="path34"
         d="m 3669.62,4742.21 c 0,0 -0.03,-1.7 -0.62,-3.75 -0.6,-2.03 -1.87,-4.31 -3.56,-6.22 -1.74,-1.86 -3.9,-3.35 -5.85,-4.13 -2,-0.78 -3.69,-0.95 -3.69,-0.95 0,0 0.02,1.69 0.6,3.75 0.61,2.04 1.88,4.31 3.58,6.22 1.74,1.86 3.9,3.34 5.87,4.13 1.99,0.77 3.67,0.95 3.67,0.95"
         style="fill:#f7d333;fill-opacity:1;fill-rule:nonzero;stroke:none"
         transform="matrix(0.13333333,0,0,-0.13333333,0,795.04)" />
      <path
         id="path35"
         d="m 3906.82,4527.41 c 0,0 -0.99,-1.37 -2.64,-2.73 -1.66,-1.31 -4,-2.47 -6.48,-3.06 -2.49,-0.54 -5.1,-0.52 -7.17,-0.05 -2.08,0.51 -3.58,1.33 -3.58,1.33 0,0 1,1.38 2.65,2.73 1.65,1.33 4.01,2.47 6.48,3.06 2.49,0.54 5.11,0.51 7.18,0.04 2.07,-0.51 3.56,-1.32 3.56,-1.32"
         style="fill:#f7d333;fill-opacity:1;fill-rule:nonzero;stroke:none"
         transform="matrix(0.13333333,0,0,-0.13333333,0,795.04)" />
      <path
         id="path36"
         d="m 3702.64,4484.49 c 0,0 -0.98,-1.38 -2.63,-2.73 -1.65,-1.33 -3.99,-2.49 -6.47,-3.08 -2.49,-0.55 -5.1,-0.54 -7.17,-0.07 -2.07,0.51 -3.58,1.32 -3.58,1.32 0,0 1,1.39 2.64,2.73 1.65,1.33 4,2.48 6.46,3.08 2.5,0.55 5.12,0.52 7.18,0.06 2.08,-0.5 3.57,-1.31 3.57,-1.31"
         style="fill:#f7d333;fill-opacity:1;fill-rule:nonzero;stroke:none"
         transform="matrix(0.13333333,0,0,-0.13333333,0,795.04)" />
      <path
         id="path37"
         d="m 3768.63,4531.26 c 0,0 -0.97,-1.37 -2.62,-2.72 -1.65,-1.33 -4,-2.48 -6.48,-3.07 -2.48,-0.55 -5.1,-0.54 -7.17,-0.06 -2.07,0.5 -3.57,1.32 -3.57,1.32 0,0 1,1.38 2.64,2.73 1.64,1.33 3.99,2.48 6.46,3.06 2.49,0.55 5.11,0.52 7.18,0.06 2.08,-0.5 3.56,-1.32 3.56,-1.32"
         style="fill:#f7d333;fill-opacity:1;fill-rule:nonzero;stroke:none"
         transform="matrix(0.13333333,0,0,-0.13333333,0,795.04)" />
      <path
         id="path38"
         d="m 3941.35,4729.93 c 0,0 -0.5,-1.62 -1.62,-3.44 -1.15,-1.78 -2.99,-3.63 -5.15,-5 -2.18,-1.31 -4.66,-2.15 -6.78,-2.36 -2.13,-0.2 -3.81,0.1 -3.81,0.1 0,0 0.5,1.61 1.62,3.43 1.14,1.8 2.98,3.64 5.15,5 2.18,1.31 4.67,2.13 6.78,2.36 2.13,0.19 3.81,-0.09 3.81,-0.09"
         style="fill:#f7d333;fill-opacity:1;fill-rule:nonzero;stroke:none"
         transform="matrix(0.13333333,0,0,-0.13333333,0,795.04)" />
      <path
         id="path39"
         d="m 3873.19,4803.66 c 0,0 -0.49,-1.62 -1.62,-3.44 -1.14,-1.78 -3,-3.62 -5.14,-4.98 -2.19,-1.32 -4.67,-2.15 -6.78,-2.36 -2.13,-0.19 -3.81,0.11 -3.81,0.11 0,0 0.5,1.63 1.62,3.43 1.13,1.79 2.99,3.63 5.16,4.98 2.17,1.32 4.67,2.14 6.77,2.36 2.13,0.18 3.8,-0.1 3.8,-0.1"
         style="fill:#f7d333;fill-opacity:1;fill-rule:nonzero;stroke:none"
         transform="matrix(0.13333333,0,0,-0.13333333,0,795.04)" />
      <path
         id="path40"
         d="m 4723.17,4945.15 0.09,0.07 -1.37,0.94 c -71.96,50.66 -148.53,59.63 -202.34,-25.49 62.38,-67.15 145.59,-37.09 203.62,24.48"
         style="fill:#95c11f;fill-opacity:1;fill-rule:nonzero;stroke:none"
         transform="matrix(0.13333333,0,0,-0.13333333,0,795.04)" />
      <path
         id="path41"
         d="m 4723.17,4945.15 c -57.06,-21.92 -132.08,-36.67 -203.62,-24.48 62.38,-67.15 145.59,-37.09 203.62,24.48"
         style="fill:#789b0d;fill-opacity:1;fill-rule:nonzero;stroke:none"
         transform="matrix(0.13333333,0,0,-0.13333333,0,795.04)" />
      <path
         id="path42"
         d="m 4425.78,5173.58 0.06,0.1 1.31,-1.01 c 68.55,-55.16 98.32,-126.29 31.42,-201.47 -81.79,41.35 -75.88,129.63 -32.79,202.38"
         style="fill:#95c11f;fill-opacity:1;fill-rule:nonzero;stroke:none"
         transform="matrix(0.13333333,0,0,-0.13333333,0,795.04)" />
      <path
         id="path43"
         d="m 4425.78,5173.58 c -5.25,-60.82 1.31,-137.03 32.79,-202.38 -81.79,41.35 -75.88,129.63 -32.79,202.38"
         style="fill:#789b0d;fill-opacity:1;fill-rule:nonzero;stroke:none"
         transform="matrix(0.13333333,0,0,-0.13333333,0,795.04)" />
      <path
         id="path44"
         d="m 4638.28,5137.32 0.02,0.17 -1.63,-0.24 c -87.19,-11.97 -149.37,-57.65 -130.72,-156.58 91.43,-6.64 131.84,72.09 132.33,156.65"
         style="fill:#95c11f;fill-opacity:1;fill-rule:nonzero;stroke:none"
         transform="matrix(0.13333333,0,0,-0.13333333,0,795.04)" />
      <path
         id="path45"
         d="m 4638.28,5137.32 c -26.82,-54.89 -71.68,-116.78 -132.33,-156.65 91.43,-6.64 131.84,72.09 132.33,156.65"
         style="fill:#789b0d;fill-opacity:1;fill-rule:nonzero;stroke:none"
         transform="matrix(0.13333333,0,0,-0.13333333,0,795.04)" />
      <path
         id="path46"
         d="m 4722.75,5008.22 0.09,0.1 -1.34,0.95 c -71.94,50.65 -148.56,59.59 -202.34,-25.51 62.37,-67.14 145.59,-37.05 203.59,24.46"
         style="fill:#95c11f;fill-opacity:1;fill-rule:nonzero;stroke:none"
         transform="matrix(0.13333333,0,0,-0.13333333,0,795.04)" />
      <path
         id="path47"
         d="m 4722.75,5008.22 c -57.01,-21.84 -132.02,-36.6 -203.59,-24.46 62.37,-67.14 145.59,-37.05 203.59,24.46"
         style="fill:#789b0d;fill-opacity:1;fill-rule:nonzero;stroke:none"
         transform="matrix(0.13333333,0,0,-0.13333333,0,795.04)" />
      <path
         id="path48"
         d="m 4485.28,5187 0.05,0.09 1.32,-0.97 c 68.56,-55.17 98.33,-126.33 31.43,-201.53 -81.79,41.39 -75.91,129.66 -32.8,202.41"
         style="fill:#95c11f;fill-opacity:1;fill-rule:nonzero;stroke:none"
         transform="matrix(0.13333333,0,0,-0.13333333,0,795.04)" />
      <path
         id="path49"
         d="m 4485.28,5187 c -5.24,-60.83 1.32,-137.01 32.8,-202.41 -81.79,41.39 -75.91,129.66 -32.8,202.41"
         style="fill:#789b0d;fill-opacity:1;fill-rule:nonzero;stroke:none"
         transform="matrix(0.13333333,0,0,-0.13333333,0,795.04)" />
      <path
         id="path50"
         d="m 4517.11,5096.89 c 59.39,-30.51 192.75,-159.15 191.25,-224.23 -2.18,-93.16 -151.07,-169.08 -221.17,-208.26 -52.54,-29.35 -149.22,-65.33 -216.32,-32.62 -66.44,32.37 -51.18,151.34 -45.77,212.05 7.42,82.44 51.89,182.78 79.12,231.37 49.44,88.13 140.8,62.32 203.61,26.94 l 9.28,-5.25"
         style="fill:#ed0028;fill-opacity:1;fill-rule:nonzero;stroke:none"
         transform="matrix(0.13333333,0,0,-0.13333333,0,795.04)" />
      <path
         id="path51"
         d="m 4270.87,4631.78 c 67.1,-32.71 163.78,3.27 216.32,32.62 70.1,39.18 218.99,115.1 221.17,208.26 0.21,9.09 -2.21,19.41 -6.7,30.51 0,0 8.89,-71.91 -180.62,-182.6 -19.54,-11.42 -171.54,-102.46 -262.19,-81.36 3.71,-2.82 7.67,-5.35 12.02,-7.43"
         style="fill:#d3002e;fill-opacity:1;fill-rule:nonzero;stroke:none"
         transform="matrix(0.13333333,0,0,-0.13333333,0,795.04)" />
      <path
         id="path52"
         d="m 4623.4,4924.41 c 0,0 0.21,-1.54 -0.02,-3.33 -0.27,-1.76 -1.13,-3.65 -2.44,-5.12 -1.37,-1.44 -3.18,-2.45 -4.91,-2.86 -1.77,-0.38 -3.33,-0.28 -3.33,-0.28 0,0 -0.24,1.55 0.01,3.34 0.27,1.76 1.14,3.65 2.45,5.11 1.36,1.43 3.18,2.44 4.92,2.85 1.76,0.39 3.32,0.29 3.32,0.29"
         style="fill:#f7d333;fill-opacity:1;fill-rule:nonzero;stroke:none"
         transform="matrix(0.13333333,0,0,-0.13333333,0,795.04)" />
      <path
         id="path53"
         d="m 4317.83,4661.59 c 0,0 0.23,-1.54 -0.02,-3.34 -0.27,-1.76 -1.13,-3.66 -2.46,-5.12 -1.36,-1.42 -3.16,-2.44 -4.9,-2.85 -1.78,-0.37 -3.34,-0.27 -3.34,-0.27 0,0 -0.22,1.55 0.02,3.33 0.28,1.77 1.14,3.66 2.46,5.12 1.37,1.43 3.18,2.43 4.92,2.85 1.77,0.37 3.32,0.28 3.32,0.28"
         style="fill:#f7d333;fill-opacity:1;fill-rule:nonzero;stroke:none"
         transform="matrix(0.13333333,0,0,-0.13333333,0,795.04)" />
      <path
         id="path54"
         d="m 4336.64,4722.39 c 0,0 0.22,-1.55 -0.03,-3.33 -0.28,-1.77 -1.13,-3.65 -2.45,-5.12 -1.35,-1.43 -3.16,-2.43 -4.9,-2.84 -1.77,-0.38 -3.32,-0.27 -3.32,-0.27 0,0 -0.24,1.55 0.01,3.34 0.27,1.75 1.14,3.65 2.45,5.1 1.37,1.43 3.18,2.44 4.92,2.83 1.76,0.39 3.32,0.29 3.32,0.29"
         style="fill:#f7d333;fill-opacity:1;fill-rule:nonzero;stroke:none"
         transform="matrix(0.13333333,0,0,-0.13333333,0,795.04)" />
      <path
         id="path55"
         d="m 4534.82,4928.68 c 0,0 0.22,-1.54 -0.03,-3.33 -0.26,-1.77 -1.13,-3.67 -2.44,-5.13 -1.35,-1.42 -3.17,-2.44 -4.91,-2.85 -1.76,-0.37 -3.32,-0.28 -3.32,-0.28 0,0 -0.23,1.56 0.02,3.34 0.26,1.76 1.13,3.66 2.44,5.12 1.37,1.43 3.19,2.43 4.91,2.84 1.77,0.38 3.33,0.29 3.33,0.29"
         style="fill:#f7d333;fill-opacity:1;fill-rule:nonzero;stroke:none"
         transform="matrix(0.13333333,0,0,-0.13333333,0,795.04)" />
      <path
         id="path56"
         d="m 4487.17,4989.64 c 0,0 0.21,-1.55 -0.02,-3.34 -0.28,-1.76 -1.13,-3.66 -2.46,-5.13 -1.35,-1.44 -3.17,-2.43 -4.9,-2.84 -1.76,-0.38 -3.33,-0.28 -3.33,-0.28 0,0 -0.22,1.57 0.03,3.34 0.27,1.78 1.15,3.66 2.46,5.13 1.36,1.43 3.18,2.43 4.91,2.84 1.76,0.37 3.31,0.28 3.31,0.28"
         style="fill:#f7d333;fill-opacity:1;fill-rule:nonzero;stroke:none"
         transform="matrix(0.13333333,0,0,-0.13333333,0,795.04)" />
      <path
         id="path57"
         d="m 4380.9,4897.58 c 0,0 0.22,-1.56 -0.03,-3.34 -0.26,-1.77 -1.12,-3.67 -2.43,-5.13 -1.37,-1.45 -3.18,-2.44 -4.9,-2.85 -1.77,-0.39 -3.33,-0.29 -3.33,-0.29 0,0 -0.23,1.55 0.01,3.35 0.27,1.76 1.14,3.66 2.46,5.12 1.36,1.44 3.18,2.44 4.91,2.85 1.77,0.38 3.31,0.29 3.31,0.29"
         style="fill:#f7d333;fill-opacity:1;fill-rule:nonzero;stroke:none"
         transform="matrix(0.13333333,0,0,-0.13333333,0,795.04)" />
      <path
         id="path58"
         d="m 4649.24,4862.18 c 0,0 0.21,-1.55 -0.04,-3.34 -0.27,-1.76 -1.13,-3.67 -2.44,-5.14 -1.37,-1.44 -3.18,-2.45 -4.91,-2.86 -1.77,-0.38 -3.33,-0.29 -3.33,-0.29 0,0 -0.22,1.57 0.02,3.35 0.27,1.77 1.15,3.67 2.46,5.14 1.36,1.44 3.18,2.44 4.91,2.86 1.77,0.38 3.33,0.28 3.33,0.28"
         style="fill:#f7d333;fill-opacity:1;fill-rule:nonzero;stroke:none"
         transform="matrix(0.13333333,0,0,-0.13333333,0,795.04)" />
      <path
         id="path59"
         d="m 4542.38,4735.65 c 0,0 0.24,-1.54 -0.02,-3.33 -0.25,-1.77 -1.11,-3.66 -2.42,-5.13 -1.36,-1.42 -3.16,-2.44 -4.9,-2.85 -1.77,-0.39 -3.34,-0.29 -3.34,-0.29 0,0 -0.23,1.55 0.02,3.34 0.26,1.76 1.11,3.65 2.44,5.12 1.35,1.42 3.16,2.44 4.91,2.85 1.76,0.39 3.31,0.29 3.31,0.29"
         style="fill:#f7d333;fill-opacity:1;fill-rule:nonzero;stroke:none"
         transform="matrix(0.13333333,0,0,-0.13333333,0,795.04)" />
      <path
         id="path60"
         d="m 4275.73,4794.94 c 0,0 0.64,-1.6 0.88,-3.68 0.21,-2.08 -0.14,-4.58 -1.06,-6.82 -0.97,-2.23 -2.51,-4.22 -4.14,-5.51 -1.66,-1.27 -3.27,-1.91 -3.27,-1.91 0,0 -0.64,1.6 -0.87,3.68 -0.22,2.07 0.14,4.56 1.06,6.82 0.97,2.22 2.53,4.21 4.15,5.49 1.66,1.28 3.26,1.93 3.25,1.93"
         style="fill:#f7d333;fill-opacity:1;fill-rule:nonzero;stroke:none"
         transform="matrix(0.13333333,0,0,-0.13333333,0,795.04)" />
      <path
         id="path61"
         d="m 4378.62,5081.2 c -0.01,0 0.73,-1.41 1.09,-3.2 0.32,-1.78 0.13,-3.91 -0.63,-5.78 -0.8,-1.84 -2.19,-3.46 -3.69,-4.46 -1.54,-0.99 -3.07,-1.44 -3.07,-1.44 0,0 -0.72,1.4 -1.09,3.2 -0.32,1.78 -0.14,3.91 0.64,5.77 0.81,1.85 2.2,3.45 3.7,4.46 1.54,0.99 3.06,1.45 3.05,1.45"
         style="fill:#f7d333;fill-opacity:1;fill-rule:nonzero;stroke:none"
         transform="matrix(0.13333333,0,0,-0.13333333,0,795.04)" />
      <path
         id="path62"
         d="m 4405.21,4988.46 c 0,0 0.26,-1.81 0,-4.1 -0.29,-2.28 -1.23,-4.96 -2.7,-7.28 -1.51,-2.31 -3.56,-4.27 -5.52,-5.46 -2,-1.19 -3.77,-1.67 -3.77,-1.67 0,0 -0.27,1.82 -0.02,4.12 0.29,2.27 1.23,4.94 2.72,7.27 1.52,2.3 3.57,4.25 5.53,5.45 1.99,1.17 3.76,1.67 3.76,1.67"
         style="fill:#f7d333;fill-opacity:1;fill-rule:nonzero;stroke:none"
         transform="matrix(0.13333333,0,0,-0.13333333,0,795.04)" />
      <path
         id="path63"
         d="m 4272.25,4723.42 c 0,0 0.26,-1.81 0.01,-4.11 -0.29,-2.27 -1.24,-4.95 -2.71,-7.27 -1.52,-2.31 -3.55,-4.27 -5.51,-5.47 -1.99,-1.17 -3.77,-1.66 -3.77,-1.66 0,0 -0.28,1.82 -0.03,4.12 0.29,2.28 1.24,4.94 2.73,7.27 1.51,2.3 3.55,4.25 5.52,5.45 1.99,1.18 3.76,1.67 3.76,1.67"
         style="fill:#f7d333;fill-opacity:1;fill-rule:nonzero;stroke:none"
         transform="matrix(0.13333333,0,0,-0.13333333,0,795.04)" />
      <path
         id="path64"
         d="m 4465,4905.37 c 0,0 0.27,-1.82 0.02,-4.11 -0.29,-2.28 -1.24,-4.94 -2.72,-7.27 -1.51,-2.31 -3.55,-4.26 -5.51,-5.45 -1.99,-1.17 -3.76,-1.66 -3.76,-1.66 0,0 -0.28,1.82 -0.02,4.12 0.29,2.27 1.24,4.94 2.72,7.27 1.52,2.28 3.56,4.24 5.52,5.43 1.99,1.17 3.75,1.67 3.75,1.67"
         style="fill:#f7d333;fill-opacity:1;fill-rule:nonzero;stroke:none"
         transform="matrix(0.13333333,0,0,-0.13333333,0,795.04)" />
      <path
         id="path65"
         d="m 4392.85,4813.03 c 0,0 0.28,-1.81 0.02,-4.11 -0.29,-2.27 -1.23,-4.95 -2.71,-7.27 -1.52,-2.31 -3.56,-4.26 -5.52,-5.46 -1.99,-1.17 -3.77,-1.67 -3.77,-1.67 0,0 -0.26,1.82 -0.01,4.12 0.27,2.27 1.23,4.94 2.71,7.27 1.53,2.3 3.57,4.25 5.53,5.44 1.99,1.17 3.75,1.68 3.75,1.68"
         style="fill:#f7d333;fill-opacity:1;fill-rule:nonzero;stroke:none"
         transform="matrix(0.13333333,0,0,-0.13333333,0,795.04)" />
      <path
         id="path66"
         d="m 4483.14,4828.07 c 0,0 0.28,-1.81 0.02,-4.1 -0.29,-2.29 -1.23,-4.95 -2.69,-7.27 -1.52,-2.3 -3.56,-4.27 -5.53,-5.46 -1.98,-1.17 -3.75,-1.66 -3.75,-1.66 0,0 -0.28,1.81 -0.03,4.12 0.29,2.26 1.24,4.93 2.71,7.25 1.52,2.3 3.57,4.25 5.52,5.45 2,1.18 3.75,1.67 3.75,1.67"
         style="fill:#f7d333;fill-opacity:1;fill-rule:nonzero;stroke:none"
         transform="matrix(0.13333333,0,0,-0.13333333,0,795.04)" />
      <path
         id="path67"
         d="m 4562.03,4866.39 c 0,0 -0.1,-1.83 -0.81,-4.03 -0.73,-2.17 -2.2,-4.6 -4.1,-6.59 -1.94,-1.94 -4.33,-3.46 -6.49,-4.24 -2.18,-0.74 -4.01,-0.88 -4.01,-0.88 0,0 0.09,1.84 0.79,4.04 0.73,2.17 2.2,4.59 4.11,6.58 1.95,1.95 4.34,3.45 6.5,4.24 2.18,0.75 4.01,0.88 4.01,0.88"
         style="fill:#f7d333;fill-opacity:1;fill-rule:nonzero;stroke:none"
         transform="matrix(0.13333333,0,0,-0.13333333,0,795.04)" />
      <path
         id="path68"
         d="m 4338.19,5010.99 c -0.01,0 0.58,-1.74 0.74,-4.05 0.09,-2.28 -0.38,-5.08 -1.41,-7.62 -1.09,-2.53 -2.77,-4.82 -4.49,-6.32 -1.76,-1.51 -3.42,-2.3 -3.42,-2.3 0,0 -0.59,1.75 -0.74,4.05 -0.11,2.29 0.37,5.08 1.42,7.63 1.1,2.53 2.78,4.81 4.5,6.32 1.75,1.5 3.41,2.29 3.4,2.29"
         style="fill:#f7d333;fill-opacity:1;fill-rule:nonzero;stroke:none"
         transform="matrix(0.13333333,0,0,-0.13333333,0,795.04)" />
      <path
         id="path69"
         d="m 4324.67,4867.24 c 0,0 0.57,-1.73 0.73,-4.04 0.11,-2.29 -0.35,-5.09 -1.4,-7.64 -1.09,-2.53 -2.75,-4.81 -4.47,-6.32 -1.76,-1.5 -3.42,-2.3 -3.42,-2.3 0,0 -0.58,1.74 -0.74,4.04 -0.12,2.31 0.36,5.09 1.41,7.64 1.09,2.52 2.77,4.8 4.49,6.33 1.75,1.5 3.4,2.29 3.4,2.29"
         style="fill:#f7d333;fill-opacity:1;fill-rule:nonzero;stroke:none"
         transform="matrix(0.13333333,0,0,-0.13333333,0,795.04)" />
      <path
         id="path70"
         d="m 4285.74,4932.43 c 0,0 0.59,-1.74 0.73,-4.04 0.11,-2.29 -0.35,-5.09 -1.39,-7.64 -1.1,-2.53 -2.76,-4.83 -4.47,-6.33 -1.76,-1.5 -3.42,-2.3 -3.42,-2.3 0,0 -0.6,1.73 -0.74,4.04 -0.12,2.3 0.35,5.09 1.4,7.64 1.1,2.53 2.77,4.8 4.49,6.32 1.75,1.51 3.4,2.31 3.4,2.31"
         style="fill:#f7d333;fill-opacity:1;fill-rule:nonzero;stroke:none"
         transform="matrix(0.13333333,0,0,-0.13333333,0,795.04)" />
      <path
         id="path71"
         d="m 4605.41,4798.82 c 0,0 -0.51,-1.76 -1.71,-3.73 -1.21,-1.96 -3.19,-3.99 -5.5,-5.47 -2.34,-1.47 -5.02,-2.39 -7.29,-2.64 -2.3,-0.23 -4.12,0.06 -4.12,0.06 0,0 0.51,1.77 1.71,3.75 1.21,1.94 3.19,3.96 5.5,5.45 2.35,1.45 5.02,2.37 7.31,2.63 2.29,0.24 4.1,-0.05 4.1,-0.05"
         style="fill:#f7d333;fill-opacity:1;fill-rule:nonzero;stroke:none"
         transform="matrix(0.13333333,0,0,-0.13333333,0,795.04)" />
      <path
         id="path72"
         d="m 4412.49,4681.27 c 0,0 -0.5,-1.75 -1.69,-3.72 -1.21,-1.96 -3.18,-3.99 -5.49,-5.49 -2.34,-1.46 -5.02,-2.39 -7.29,-2.66 -2.3,-0.23 -4.12,0.06 -4.12,0.06 0,0 0.49,1.77 1.69,3.75 1.2,1.95 3.18,3.96 5.49,5.47 2.34,1.44 5.02,2.37 7.3,2.64 2.3,0.24 4.11,-0.05 4.11,-0.05"
         style="fill:#f7d333;fill-opacity:1;fill-rule:nonzero;stroke:none"
         transform="matrix(0.13333333,0,0,-0.13333333,0,795.04)" />
      <path
         id="path73"
         d="m 4462.97,4752.85 c 0,0 -0.52,-1.77 -1.71,-3.74 -1.21,-1.94 -3.18,-3.98 -5.5,-5.47 -2.34,-1.47 -5.01,-2.39 -7.28,-2.66 -2.32,-0.23 -4.12,0.06 -4.12,0.06 0,0 0.5,1.77 1.69,3.75 1.21,1.96 3.19,3.97 5.49,5.47 2.35,1.45 5.03,2.36 7.31,2.64 2.3,0.23 4.12,-0.05 4.12,-0.05"
         style="fill:#f7d333;fill-opacity:1;fill-rule:nonzero;stroke:none"
         transform="matrix(0.13333333,0,0,-0.13333333,0,795.04)" />
      <path
         id="path74"
         d="m 4567.55,5018 c 0,0 0.08,-1.84 -0.42,-4.09 -0.52,-2.24 -1.74,-4.8 -3.44,-6.96 -1.76,-2.13 -3.99,-3.88 -6.07,-4.86 -2.09,-0.95 -3.92,-1.26 -3.92,-1.26 0,0 -0.08,1.83 0.41,4.1 0.52,2.23 1.75,4.78 3.47,6.94 1.74,2.12 3.99,3.86 6.05,4.86 2.11,0.95 3.92,1.27 3.92,1.27"
         style="fill:#f7d333;fill-opacity:1;fill-rule:nonzero;stroke:none"
         transform="matrix(0.13333333,0,0,-0.13333333,0,795.04)" />
      <path
         id="path75"
         d="m 4471.39,5068.62 c 0,0 0.07,-1.83 -0.43,-4.09 -0.53,-2.24 -1.74,-4.79 -3.46,-6.94 -1.75,-2.13 -3.98,-3.87 -6.05,-4.85 -2.11,-0.95 -3.93,-1.25 -3.93,-1.25 0,0 -0.08,1.84 0.42,4.1 0.52,2.23 1.75,4.79 3.47,6.93 1.75,2.14 4,3.86 6.07,4.84 2.1,0.95 3.91,1.26 3.91,1.26"
         style="fill:#f7d333;fill-opacity:1;fill-rule:nonzero;stroke:none"
         transform="matrix(0.13333333,0,0,-0.13333333,0,795.04)" />
      <path
         id="path76"
         d="m 4074.04,4322.75 0.02,0.11 -1.63,0.18 c -87.23,11.73 -159.29,-15.67 -167.72,-115.98 86.33,-30.79 146.27,34.29 169.33,115.69"
         style="fill:#95c11f;fill-opacity:1;fill-rule:nonzero;stroke:none"
         transform="matrix(0.13333333,0,0,-0.13333333,0,795.04)" />
      <path
         id="path77"
         d="m 4074.04,4322.75 c -40.5,-45.77 -100.25,-93.49 -169.33,-115.69 86.33,-30.79 146.27,34.29 169.33,115.69"
         style="fill:#789b0d;fill-opacity:1;fill-rule:nonzero;stroke:none"
         transform="matrix(0.13333333,0,0,-0.13333333,0,795.04)" />
      <path
         id="path78"
         d="m 3704.77,4388.13 0.02,0.08 1.6,-0.26 c 86.29,-17.32 145.53,-66.68 120.9,-164.25 -91.65,-1.08 -127.17,79.95 -122.52,164.43"
         style="fill:#95c11f;fill-opacity:1;fill-rule:nonzero;stroke:none"
         transform="matrix(0.13333333,0,0,-0.13333333,0,795.04)" />
      <path
         id="path79"
         d="m 3704.77,4388.13 c 23.43,-56.4 64.42,-120.94 122.52,-164.43 -91.65,-1.08 -127.17,79.95 -122.52,164.43"
         style="fill:#789b0d;fill-opacity:1;fill-rule:nonzero;stroke:none"
         transform="matrix(0.13333333,0,0,-0.13333333,0,795.04)" />
      <path
         id="path80"
         d="m 3910,4454.05 -0.06,0.13 -1.33,-0.94 c -71.8,-50.89 -105.88,-120.09 -43.67,-199.25 84.16,36.33 83.67,124.81 45.06,200.06"
         style="fill:#95c11f;fill-opacity:1;fill-rule:nonzero;stroke:none"
         transform="matrix(0.13333333,0,0,-0.13333333,0,795.04)" />
      <path
         id="path81"
         d="m 3910,4454.05 c 1.54,-61.09 -9.67,-136.72 -45.06,-200.06 84.16,36.33 83.67,124.81 45.06,200.06"
         style="fill:#789b0d;fill-opacity:1;fill-rule:nonzero;stroke:none"
         transform="matrix(0.13333333,0,0,-0.13333333,0,795.04)" />
      <path
         id="path82"
         d="m 4044.55,4378.51 0.02,0.09 -1.6,0.26 c -87.22,11.73 -159.32,-15.71 -167.74,-116.02 86.33,-30.77 146.26,34.3 169.32,115.67"
         style="fill:#95c11f;fill-opacity:1;fill-rule:nonzero;stroke:none"
         transform="matrix(0.13333333,0,0,-0.13333333,0,795.04)" />
      <path
         id="path83"
         d="m 4044.55,4378.51 c -40.49,-45.73 -100.23,-93.42 -169.32,-115.67 86.33,-30.77 146.26,34.3 169.32,115.67"
         style="fill:#789b0d;fill-opacity:1;fill-rule:nonzero;stroke:none"
         transform="matrix(0.13333333,0,0,-0.13333333,0,795.04)" />
      <path
         id="path84"
         d="m 3751.36,4427.49 -0.01,0.13 1.62,-0.29 c 86.29,-17.29 145.55,-66.66 120.91,-164.24 -91.65,-1.07 -127.18,79.95 -122.52,164.4"
         style="fill:#95c11f;fill-opacity:1;fill-rule:nonzero;stroke:none"
         transform="matrix(0.13333333,0,0,-0.13333333,0,795.04)" />
      <path
         id="path85"
         d="m 3751.36,4427.49 c 23.43,-56.41 64.42,-120.96 122.52,-164.4 -91.65,-1.07 -127.18,79.95 -122.52,164.4"
         style="fill:#789b0d;fill-opacity:1;fill-rule:nonzero;stroke:none"
         transform="matrix(0.13333333,0,0,-0.13333333,0,795.04)" />
      <path
         id="path86"
         d="m 3821.19,4362.25 c 66.78,0.35 244.45,-52.18 273.17,-110.62 41.08,-83.65 -55.95,-219.72 -100.06,-286.84 -33.05,-50.29 -102.21,-126.86 -176.82,-128.83 -73.89,-1.95 -115.28,110.64 -138.5,167 -31.49,76.57 -38.35,186.09 -36.62,241.75 3.17,101 96.12,120.31 168.17,117.88 l 10.66,-0.34"
         style="fill:#ed0028;fill-opacity:1;fill-rule:nonzero;stroke:none"
         transform="matrix(0.13333333,0,0,-0.13333333,0,795.04)" />
      <path
         id="path87"
         d="m 3817.48,3835.96 c 74.61,1.97 143.77,78.54 176.82,128.83 44.11,67.12 141.14,203.19 100.06,286.84 -4.01,8.14 -10.92,16.19 -20.02,23.98 0,0 41.07,-59.7 -75.94,-245.38 -12.06,-19.13 -104.85,-170.09 -195,-193.22 4.56,-0.8 9.25,-1.17 14.08,-1.05"
         style="fill:#d3002e;fill-opacity:1;fill-rule:nonzero;stroke:none"
         transform="matrix(0.13333333,0,0,-0.13333333,0,795.04)" />
      <path
         id="path88"
         d="m 3995.1,4258.33 c 0,0 0.9,-1.27 1.52,-2.97 0.57,-1.68 0.68,-3.77 0.2,-5.69 -0.55,-1.89 -1.68,-3.63 -3.03,-4.8 -1.39,-1.16 -2.83,-1.8 -2.83,-1.8 0,0 -0.92,1.27 -1.53,2.97 -0.58,1.69 -0.69,3.77 -0.19,5.69 0.55,1.89 1.7,3.63 3.05,4.8 1.38,1.15 2.81,1.8 2.81,1.8"
         style="fill:#f7d333;fill-opacity:1;fill-rule:nonzero;stroke:none"
         transform="matrix(0.13333333,0,0,-0.13333333,0,795.04)" />
      <path
         id="path89"
         d="m 3845.37,3884.11 c 0,0 0.9,-1.27 1.51,-2.97 0.57,-1.69 0.7,-3.77 0.2,-5.67 -0.54,-1.9 -1.69,-3.63 -3.04,-4.8 -1.38,-1.15 -2.83,-1.79 -2.83,-1.79 0,0 -0.91,1.27 -1.52,2.97 -0.57,1.69 -0.69,3.76 -0.18,5.67 0.55,1.9 1.69,3.64 3.05,4.79 1.39,1.16 2.81,1.8 2.81,1.8"
         style="fill:#f7d333;fill-opacity:1;fill-rule:nonzero;stroke:none"
         transform="matrix(0.13333333,0,0,-0.13333333,0,795.04)" />
      <path
         id="path90"
         d="m 3833.98,3946.72 c 0,0 0.92,-1.27 1.53,-2.97 0.56,-1.69 0.68,-3.76 0.18,-5.68 -0.53,-1.89 -1.69,-3.62 -3.03,-4.78 -1.39,-1.15 -2.84,-1.78 -2.84,-1.78 0,0 -0.91,1.27 -1.52,2.97 -0.57,1.7 -0.67,3.77 -0.17,5.67 0.54,1.9 1.69,3.62 3.04,4.78 1.39,1.15 2.81,1.79 2.81,1.79"
         style="fill:#f7d333;fill-opacity:1;fill-rule:nonzero;stroke:none"
         transform="matrix(0.13333333,0,0,-0.13333333,0,795.04)" />
      <path
         id="path91"
         d="m 3914.55,4221.18 c 0,0 0.91,-1.27 1.52,-2.96 0.57,-1.69 0.69,-3.76 0.2,-5.65 -0.54,-1.9 -1.68,-3.63 -3.04,-4.79 -1.38,-1.15 -2.82,-1.78 -2.82,-1.78 0,0 -0.92,1.27 -1.52,2.97 -0.59,1.68 -0.69,3.75 -0.2,5.65 0.55,1.89 1.7,3.61 3.05,4.78 1.39,1.15 2.81,1.78 2.81,1.78"
         style="fill:#f7d333;fill-opacity:1;fill-rule:nonzero;stroke:none"
         transform="matrix(0.13333333,0,0,-0.13333333,0,795.04)" />
      <path
         id="path92"
         d="m 3844.14,4253.29 c 0,0 0.91,-1.27 1.52,-2.97 0.57,-1.69 0.69,-3.77 0.2,-5.68 -0.54,-1.9 -1.68,-3.63 -3.04,-4.79 -1.37,-1.15 -2.82,-1.79 -2.82,-1.79 0,0 -0.91,1.28 -1.52,2.98 -0.57,1.68 -0.69,3.76 -0.19,5.67 0.54,1.89 1.69,3.63 3.04,4.78 1.38,1.17 2.81,1.8 2.81,1.8"
         style="fill:#f7d333;fill-opacity:1;fill-rule:nonzero;stroke:none"
         transform="matrix(0.13333333,0,0,-0.13333333,0,795.04)" />
      <path
         id="path93"
         d="m 3792.38,4122.55 c 0,0 0.92,-1.28 1.53,-2.97 0.56,-1.7 0.68,-3.77 0.19,-5.69 -0.55,-1.89 -1.69,-3.61 -3.05,-4.78 -1.38,-1.14 -2.81,-1.78 -2.81,-1.78 0,0 -0.92,1.29 -1.52,2.99 -0.59,1.69 -0.68,3.77 -0.2,5.66 0.55,1.9 1.71,3.62 3.05,4.79 1.39,1.15 2.81,1.78 2.81,1.78"
         style="fill:#f7d333;fill-opacity:1;fill-rule:nonzero;stroke:none"
         transform="matrix(0.13333333,0,0,-0.13333333,0,795.04)" />
      <path
         id="path94"
         d="m 4046.74,4215.02 c 0,0 0.91,-1.26 1.52,-2.97 0.57,-1.69 0.69,-3.78 0.19,-5.7 -0.54,-1.89 -1.68,-3.63 -3.04,-4.8 -1.39,-1.15 -2.81,-1.79 -2.81,-1.79 0,0 -0.92,1.28 -1.54,2.98 -0.57,1.7 -0.67,3.77 -0.18,5.68 0.55,1.91 1.7,3.64 3.05,4.81 1.38,1.16 2.81,1.79 2.81,1.79"
         style="fill:#f7d333;fill-opacity:1;fill-rule:nonzero;stroke:none"
         transform="matrix(0.13333333,0,0,-0.13333333,0,795.04)" />
      <path
         id="path95"
         d="m 4010.38,4053.44 c 0,0 0.91,-1.27 1.52,-2.96 0.58,-1.68 0.7,-3.75 0.21,-5.66 -0.54,-1.89 -1.68,-3.62 -3.03,-4.8 -1.38,-1.15 -2.81,-1.77 -2.81,-1.77 0,0 -0.92,1.27 -1.54,2.97 -0.57,1.68 -0.69,3.75 -0.2,5.65 0.55,1.89 1.7,3.63 3.05,4.79 1.38,1.15 2.81,1.78 2.8,1.78"
         style="fill:#f7d333;fill-opacity:1;fill-rule:nonzero;stroke:none"
         transform="matrix(0.13333333,0,0,-0.13333333,0,795.04)" />
      <path
         id="path96"
         d="m 3746.47,3982.97 c 0,0 1.3,-1.13 2.48,-2.87 1.14,-1.73 1.99,-4.11 2.21,-6.53 0.17,-2.43 -0.29,-4.9 -1.14,-6.81 -0.89,-1.89 -2.01,-3.2 -2.01,-3.2 0,0 -1.31,1.11 -2.48,2.85 -1.15,1.74 -1.98,4.12 -2.2,6.55 -0.17,2.42 0.3,4.9 1.15,6.79 0.89,1.91 2,3.22 1.99,3.22"
         style="fill:#f7d333;fill-opacity:1;fill-rule:nonzero;stroke:none"
         transform="matrix(0.13333333,0,0,-0.13333333,0,795.04)" />
      <path
         id="path97"
         d="m 3705.58,4284.38 c 0,0 1.29,-0.92 2.45,-2.34 1.11,-1.44 1.92,-3.4 2.11,-5.41 0.13,-2.03 -0.35,-4.08 -1.21,-5.69 -0.92,-1.59 -2.06,-2.69 -2.06,-2.69 0.01,0 -1.29,0.92 -2.45,2.34 -1.12,1.43 -1.92,3.4 -2.11,5.41 -0.12,2.02 0.37,4.09 1.23,5.68 0.91,1.6 2.04,2.7 2.04,2.7"
         style="fill:#f7d333;fill-opacity:1;fill-rule:nonzero;stroke:none"
         transform="matrix(0.13333333,0,0,-0.13333333,0,795.04)" />
      <path
         id="path98"
         d="m 3771.97,4214.37 c 0,0 1.08,-1.48 1.92,-3.64 0.78,-2.15 1.19,-4.94 0.95,-7.69 -0.28,-2.74 -1.18,-5.42 -2.37,-7.38 -1.23,-1.96 -2.57,-3.21 -2.57,-3.21 0,0 -1.08,1.48 -1.91,3.63 -0.8,2.15 -1.19,4.96 -0.96,7.69 0.28,2.74 1.2,5.43 2.38,7.39 1.22,1.95 2.56,3.21 2.56,3.21"
         style="fill:#f7d333;fill-opacity:1;fill-rule:nonzero;stroke:none"
         transform="matrix(0.13333333,0,0,-0.13333333,0,795.04)" />
      <path
         id="path99"
         d="m 3776.38,3917.92 c 0,0 1.07,-1.49 1.91,-3.65 0.79,-2.14 1.19,-4.95 0.97,-7.7 -0.3,-2.73 -1.19,-5.41 -2.38,-7.39 -1.22,-1.95 -2.56,-3.21 -2.56,-3.21 0,0 -1.09,1.49 -1.93,3.65 -0.8,2.14 -1.19,4.96 -0.94,7.69 0.27,2.75 1.19,5.43 2.38,7.38 1.21,1.98 2.56,3.23 2.55,3.23"
         style="fill:#f7d333;fill-opacity:1;fill-rule:nonzero;stroke:none"
         transform="matrix(0.13333333,0,0,-0.13333333,0,795.04)" />
      <path
         id="path100"
         d="m 3863.37,4168.29 c 0,0 1.08,-1.49 1.91,-3.63 0.79,-2.15 1.19,-4.97 0.96,-7.7 -0.28,-2.74 -1.18,-5.42 -2.37,-7.38 -1.23,-1.96 -2.58,-3.22 -2.58,-3.22 0.02,0 -1.08,1.49 -1.91,3.65 -0.81,2.15 -1.19,4.94 -0.94,7.69 0.27,2.73 1.19,5.41 2.38,7.38 1.21,1.96 2.55,3.21 2.55,3.21"
         style="fill:#f7d333;fill-opacity:1;fill-rule:nonzero;stroke:none"
         transform="matrix(0.13333333,0,0,-0.13333333,0,795.04)" />
      <path
         id="path101"
         d="m 3841.99,4053.06 c 0,0 1.08,-1.48 1.92,-3.64 0.79,-2.15 1.19,-4.94 0.95,-7.69 -0.27,-2.74 -1.19,-5.41 -2.37,-7.38 -1.22,-1.96 -2.57,-3.21 -2.57,-3.21 0,0 -1.08,1.48 -1.91,3.63 -0.81,2.15 -1.19,4.96 -0.96,7.7 0.29,2.73 1.21,5.42 2.38,7.38 1.23,1.95 2.56,3.21 2.56,3.21"
         style="fill:#f7d333;fill-opacity:1;fill-rule:nonzero;stroke:none"
         transform="matrix(0.13333333,0,0,-0.13333333,0,795.04)" />
      <path
         id="path102"
         d="m 3915.18,4108.09 c 0,0 1.06,-1.48 1.9,-3.63 0.79,-2.15 1.18,-4.96 0.96,-7.7 -0.29,-2.73 -1.18,-5.41 -2.38,-7.38 -1.23,-1.95 -2.57,-3.2 -2.57,-3.2 0,0 -1.08,1.48 -1.92,3.63 -0.8,2.15 -1.18,4.96 -0.95,7.7 0.29,2.73 1.21,5.41 2.4,7.37 1.21,1.96 2.56,3.21 2.56,3.21"
         style="fill:#f7d333;fill-opacity:1;fill-rule:nonzero;stroke:none"
         transform="matrix(0.13333333,0,0,-0.13333333,0,795.04)" />
      <path
         id="path103"
         d="m 3967.43,4178.5 c 0,0 0.75,-1.67 1.14,-3.94 0.36,-2.27 0.18,-5.09 -0.58,-7.73 -0.83,-2.62 -2.25,-5.07 -3.81,-6.74 -1.58,-1.68 -3.14,-2.64 -3.14,-2.64 0,0 -0.78,1.67 -1.17,3.94 -0.36,2.27 -0.17,5.09 0.61,7.73 0.83,2.63 2.25,5.06 3.8,6.75 1.59,1.68 3.16,2.63 3.15,2.63"
         style="fill:#f7d333;fill-opacity:1;fill-rule:nonzero;stroke:none"
         transform="matrix(0.13333333,0,0,-0.13333333,0,795.04)" />
      <path
         id="path104"
         d="m 3702.12,4203.44 c 0,0 1.32,-1.27 2.52,-3.25 1.16,-1.98 2.03,-4.68 2.27,-7.41 0.2,-2.76 -0.21,-5.55 -1.05,-7.69 -0.87,-2.13 -1.97,-3.61 -1.97,-3.61 0,0 -1.33,1.28 -2.52,3.25 -1.16,1.98 -2.03,4.67 -2.27,7.43 -0.19,2.73 0.24,5.53 1.06,7.67 0.88,2.15 1.96,3.61 1.96,3.61"
         style="fill:#f7d333;fill-opacity:1;fill-rule:nonzero;stroke:none"
         transform="matrix(0.13333333,0,0,-0.13333333,0,795.04)" />
      <path
         id="path105"
         d="m 3756.49,4069.67 c 0,0 1.33,-1.26 2.52,-3.24 1.17,-1.97 2.04,-4.67 2.29,-7.4 0.19,-2.74 -0.23,-5.54 -1.06,-7.68 -0.86,-2.14 -1.96,-3.61 -1.96,-3.61 0,0 -1.33,1.27 -2.53,3.24 -1.16,1.98 -2.02,4.67 -2.27,7.41 -0.2,2.74 0.23,5.54 1.06,7.67 0.87,2.15 1.95,3.61 1.95,3.61"
         style="fill:#f7d333;fill-opacity:1;fill-rule:nonzero;stroke:none"
         transform="matrix(0.13333333,0,0,-0.13333333,0,795.04)" />
      <path
         id="path106"
         d="m 3691.87,4109.52 c 0,0 1.31,-1.27 2.51,-3.25 1.17,-1.97 2.05,-4.66 2.29,-7.4 0.2,-2.75 -0.22,-5.54 -1.05,-7.68 -0.87,-2.14 -1.97,-3.61 -1.97,-3.61 0,0 -1.33,1.26 -2.53,3.24 -1.16,1.98 -2.02,4.67 -2.27,7.41 -0.2,2.74 0.23,5.53 1.06,7.68 0.87,2.14 1.96,3.61 1.96,3.61"
         style="fill:#f7d333;fill-opacity:1;fill-rule:nonzero;stroke:none"
         transform="matrix(0.13333333,0,0,-0.13333333,0,795.04)" />
      <path
         id="path107"
         d="m 4037.12,4138.61 c 0,0 0.36,-1.81 0.21,-4.11 -0.18,-2.29 -0.99,-5 -2.35,-7.4 -1.41,-2.37 -3.36,-4.42 -5.25,-5.71 -1.94,-1.27 -3.69,-1.84 -3.69,-1.84 0,0 -0.36,1.8 -0.22,4.11 0.18,2.28 1.01,5 2.37,7.39 1.42,2.37 3.37,4.43 5.26,5.71 1.94,1.27 3.67,1.85 3.67,1.85"
         style="fill:#f7d333;fill-opacity:1;fill-rule:nonzero;stroke:none"
         transform="matrix(0.13333333,0,0,-0.13333333,0,795.04)" />
      <path
         id="path108"
         d="m 3920.26,3945.26 c 0,0 0.36,-1.8 0.22,-4.1 -0.18,-2.29 -0.99,-5 -2.35,-7.4 -1.41,-2.38 -3.34,-4.44 -5.25,-5.73 -1.93,-1.27 -3.68,-1.85 -3.68,-1.85 0,0 -0.37,1.8 -0.23,4.11 0.18,2.3 1,4.99 2.36,7.39 1.4,2.38 3.36,4.44 5.26,5.73 1.94,1.26 3.67,1.85 3.67,1.85"
         style="fill:#f7d333;fill-opacity:1;fill-rule:nonzero;stroke:none"
         transform="matrix(0.13333333,0,0,-0.13333333,0,795.04)" />
      <path
         id="path109"
         d="m 3931.99,4032.08 c 0,0 0.35,-1.8 0.21,-4.1 -0.17,-2.29 -0.99,-5 -2.35,-7.41 -1.4,-2.38 -3.35,-4.44 -5.24,-5.74 -1.93,-1.27 -3.69,-1.84 -3.69,-1.84 0,0 -0.36,1.8 -0.22,4.1 0.17,2.29 1,5 2.36,7.41 1.41,2.36 3.36,4.42 5.26,5.72 1.92,1.27 3.67,1.86 3.67,1.86"
         style="fill:#f7d333;fill-opacity:1;fill-rule:nonzero;stroke:none"
         transform="matrix(0.13333333,0,0,-0.13333333,0,795.04)" />
      <path
         id="path110"
         d="m 3902.36,4315.53 c 0,0 0.92,-1.59 1.53,-3.82 0.55,-2.23 0.65,-5.06 0.13,-7.77 -0.57,-2.7 -1.75,-5.27 -3.14,-7.1 -1.43,-1.83 -2.89,-2.94 -2.89,-2.94 0,0 -0.92,1.6 -1.53,3.83 -0.56,2.22 -0.66,5.05 -0.13,7.77 0.57,2.69 1.77,5.27 3.15,7.1 1.42,1.82 2.88,2.93 2.88,2.93"
         style="fill:#f7d333;fill-opacity:1;fill-rule:nonzero;stroke:none"
         transform="matrix(0.13333333,0,0,-0.13333333,0,795.04)" />
      <path
         id="path111"
         d="m 3793.67,4316.06 c 0,0 0.91,-1.59 1.52,-3.83 0.55,-2.21 0.65,-5.05 0.13,-7.75 -0.55,-2.7 -1.75,-5.27 -3.13,-7.09 -1.42,-1.82 -2.89,-2.93 -2.89,-2.93 0,0 -0.92,1.59 -1.53,3.83 -0.57,2.22 -0.66,5.05 -0.13,7.75 0.57,2.7 1.75,5.27 3.14,7.09 1.43,1.82 2.89,2.93 2.89,2.93"
         style="fill:#f7d333;fill-opacity:1;fill-rule:nonzero;stroke:none"
         transform="matrix(0.13333333,0,0,-0.13333333,0,795.04)" />
      <path
         id="path112"
         d="m 3322.3,3197 c 13.27,14.49 21.77,32.4 26.06,52.03 7.4,-12.02 5.31,-31.78 -10.25,-50.37 -4.97,-5.84 -15.04,-17.4 -27.52,-26.28 -3.89,1.87 -7.96,3.7 -12.15,5.56 9.38,5.67 17.46,12.05 23.86,19.06"
         style="fill:#683c11;fill-opacity:1;fill-rule:nonzero;stroke:none"
         transform="matrix(0.13333333,0,0,-0.13333333,0,795.04)" />
      <path
         id="path113"
         d="m 3298.44,3177.94 c -12.88,5.72 -27.11,11.43 -42.92,17.18 7.2,9.06 54.52,72.99 80.71,63.73 5.26,-1.83 9.37,-5.27 12.13,-9.82 -4.29,-19.63 -12.79,-37.54 -26.06,-52.03 -6.4,-7.01 -14.48,-13.39 -23.86,-19.06"
         style="fill:#683c11;fill-opacity:1;fill-rule:nonzero;stroke:none"
         transform="matrix(0.13333333,0,0,-0.13333333,0,795.04)" />
      <path
         id="path114"
         d="m 3666.06,5321.58 c 16.02,-14.36 64.09,-64.99 79.39,-88.37 -42.25,11.08 -56.91,45.27 -79.39,88.37"
         style="fill:#683c11;fill-opacity:1;fill-rule:nonzero;stroke:none"
         transform="matrix(0.13333333,0,0,-0.13333333,0,795.04)" />
      <path
         id="path115"
         d="m 3666.06,5321.58 c -22.32,-22.96 -40.51,-44.25 -55.87,-63.51 14.6,19.92 25.36,34.56 55.87,63.51"
         style="fill:#683c11;fill-opacity:1;fill-rule:nonzero;stroke:none"
         transform="matrix(0.13333333,0,0,-0.13333333,0,795.04)" />
      <path
         id="path116"
         d="m 3689.1,5175.69 c -15.24,25.27 -65.19,54.2 -80.91,79.71 l 2,2.67 c 15.36,19.26 33.55,40.55 55.87,63.51 22.48,-43.1 37.14,-77.29 79.39,-88.37 -20,-22.99 -38.61,-41.46 -56.35,-57.52"
         style="fill:#683c11;fill-opacity:1;fill-rule:nonzero;stroke:none"
         transform="matrix(0.13333333,0,0,-0.13333333,0,795.04)" />
      <path
         id="path117"
         d="m 3310.96,4574.62 c -100.41,-143.8 -234.24,-429.53 -216.75,-610.18 26.04,-266.17 78.35,-327.11 226.06,-576.33 38.18,-62.99 44.73,-144.4 2.03,-191.11 -48.89,-53.5 -192.98,-70.96 -295.48,-0.2 -185.07,130.43 -150.98,104.16 -313.03,290.29 -162.07,186.55 -235.5,386.39 -249.12,568.21 -13.59,184.06 32.62,350.04 110.47,520.19 36.82,68.32 159.41,278.83 330.94,406.57 164.64,127.65 359.1,223.35 559.99,163.53 78.51,-23.38 78.91,51.33 199.99,175.99 22.48,-43.1 37.14,-77.29 79.39,-88.37 -101.17,-116.64 -152.31,-110.64 -204.3,-247.15 -39.98,-104.98 -156.33,-304.28 -230.19,-411.44"
         style="fill:#f7d333;fill-opacity:1;fill-rule:nonzero;stroke:none"
         transform="matrix(0.13333333,0,0,-0.13333333,0,795.04)" />
      <path
         id="path118"
         d="m 3254.26,3193.44 c -4.92,-16.54 3.83,-28.3 14.86,-31.66 29.16,-8.8 59.12,25.28 68.99,36.88 21.43,25.59 17.42,53.5 -1.88,60.19 -26.19,9.26 -73.51,-54.67 -80.71,-63.73 l -1.26,-1.68"
         style="fill:#683c11;fill-opacity:1;fill-rule:nonzero;stroke:none"
         transform="matrix(0.13333333,0,0,-0.13333333,0,795.04)" />
      <path
         id="path119"
         d="m 3745.45,5233.21 c -20,-22.99 -38.61,-41.46 -56.35,-57.52 -15.24,25.27 -65.19,54.2 -80.91,79.71 15.7,21.34 26.01,35.92 57.87,66.18 16.02,-14.36 64.09,-64.99 79.39,-88.37"
         style="fill:#683c11;fill-opacity:1;fill-rule:nonzero;stroke:none"
         transform="matrix(0.13333333,0,0,-0.13333333,0,795.04)" />
      <path
         id="path120"
         d="m 2959.02,4836.22 c -221.94,-260.63 -302.56,-480.04 -274.2,-827.23 20.11,-246.66 339.57,-729.92 570.7,-813.87 l -1.26,-1.68 c -4.43,-14.87 2.22,-25.87 11.64,-30.37 -65.96,-22.6 -163.73,-18.3 -239.08,33.73 -185.07,130.43 -150.98,104.16 -313.03,290.29 -162.07,186.55 -235.5,386.39 -249.12,568.21 -13.59,184.06 32.62,350.04 110.47,520.19 36.82,68.32 159.41,278.83 330.94,406.57 164.64,127.65 359.1,223.35 559.99,163.53 6.74,-1.99 12.86,-3.22 18.56,-3.82 l 0.02,-0.02 c 0,0 -276.73,-13.2 -525.63,-305.53"
         style="fill:#edc10c;fill-opacity:1;fill-rule:nonzero;stroke:none"
         transform="matrix(0.13333333,0,0,-0.13333333,0,795.04)" />
      <path
         id="path121"
         d="m 5051.83,3963.17 c -89.74,13.45 -246.05,-42.35 -294.02,-120.98 98.24,41.57 184.01,56.93 274.44,32.23 6.44,26.27 14.9,57.5 17.95,82.12 l 1.63,6.63"
         style="fill:#683c11;fill-opacity:1;fill-rule:nonzero;stroke:none"
         transform="matrix(0.13333333,0,0,-0.13333333,0,795.04)" />
      <path
         id="path122"
         d="m 4823.24,4259.23 -0.13,0.13 -1.44,-2.48 c -74.86,-133.22 -76.88,-267.14 79.56,-345.06 105.06,119.52 38.54,257.97 -77.99,347.41"
         style="fill:#789b0d;fill-opacity:1;fill-rule:nonzero;stroke:none"
         transform="matrix(0.13333333,0,0,-0.13333333,0,795.04)" />
      <path
         id="path123"
         d="m 4823.24,4259.23 c 47.83,-94.67 86.45,-221.72 77.99,-347.41 105.06,119.52 38.54,257.97 -77.99,347.41"
         style="fill:#95c11f;fill-opacity:1;fill-rule:nonzero;stroke:none"
         transform="matrix(0.13333333,0,0,-0.13333333,0,795.04)" />
      <path
         id="path124"
         d="m 4771.71,3851.78 c 130.54,-3.29 202.12,-147.2 231.08,-212.73 94.91,-214.46 -2.55,-436.67 -206.48,-559.87 -247.61,-149.52 -599.79,-57.84 -657.54,229.38 -10.63,52.73 -12.5,55.49 -8.01,107.75 5.24,60.81 -39.65,73.1 -63.08,132.94 -36.37,92.74 15.03,209.59 76.83,300.27 65.86,96.6 226.6,178.67 337.68,189.21 113.88,10.79 259.55,-25.32 287.67,-183.23 l 1.85,-3.72"
         style="fill:#f79034;fill-opacity:1;fill-rule:nonzero;stroke:none"
         transform="matrix(0.13333333,0,0,-0.13333333,0,795.04)" />
      <path
         id="path125"
         d="m 4699.84,3919.62 c -14.53,38.89 -66.66,82.42 -149.98,83.7 -33.1,0.52 -118.57,1.35 -253.8,-71.73 -128.07,-69.21 -199.46,-253.2 -200.7,-289.08 -0.88,-25.7 -7.55,-84.76 45.35,-118.5 0,0 14.92,70.25 28.92,94.43 36.32,62.58 87.26,134.03 151.62,178.73 83.01,57.66 164.93,77.66 223.61,86.62 143.64,21.8 175.75,-27.91 175.35,-18.43"
         style="fill:#f9b233;fill-opacity:1;fill-rule:nonzero;stroke:none"
         transform="matrix(0.13333333,0,0,-0.13333333,0,795.04)" />
      <path
         id="path126"
         d="m 4796.31,3079.18 c 77.23,46.66 139.16,107.53 181.18,176.75 -0.04,-0.04 -171.29,-156.91 -357.47,-166.8 -186.21,-9.92 -341.06,15.46 -485.23,239.08 1.15,-5.76 2.49,-12.19 3.98,-19.65 57.75,-287.22 409.93,-378.9 657.54,-229.38"
         style="fill:#ef7c1d;fill-opacity:1;fill-rule:nonzero;stroke:none"
         transform="matrix(0.13333333,0,0,-0.13333333,0,795.04)" />
      <path
         id="path127"
         d="M 1202.51,459.809 H 3977.25 V 828.981 H 1202.51 Z"
         style="fill:#c1b8b3;fill-opacity:1;fill-rule:nonzero;stroke:none"
         transform="matrix(0.13333333,0,0,-0.13333333,0,795.04)"
         clip-path="url(#clipPath128)" />
      <path
         id="path129"
         d="m 1964.5,4023.29 0.07,0.29 3.9,-1.74 c 207.68,-94.27 328.28,-253.67 208.75,-485.57 -231.95,51.2 -274.04,276.57 -212.72,487.02"
         style="fill:#789b0d;fill-opacity:1;fill-rule:nonzero;stroke:none"
         transform="matrix(0.13333333,0,0,-0.13333333,0,795.04)" />
      <path
         id="path130"
         d="m 1964.5,4023.29 c 26,-156.19 91.59,-343.15 212.72,-487.02 -231.95,51.2 -274.04,276.57 -212.72,487.02"
         style="fill:#95c11f;fill-opacity:1;fill-rule:nonzero;stroke:none"
         transform="matrix(0.13333333,0,0,-0.13333333,0,795.04)" />
      <path
         id="path131"
         d="m 2574.61,3838.35 0.25,-0.13 -2.55,-3.43 c -139.33,-180.57 -322.1,-261.45 -520.48,-92.07 102.92,214.11 331.95,203.48 522.78,95.63"
         style="fill:#789b0d;fill-opacity:1;fill-rule:nonzero;stroke:none"
         transform="matrix(0.13333333,0,0,-0.13333333,0,795.04)" />
      <path
         id="path132"
         d="m 2574.61,3838.35 c -157.98,10.44 -355.03,-10.62 -522.78,-95.63 102.92,214.11 331.95,203.48 522.78,95.63"
         style="fill:#95c11f;fill-opacity:1;fill-rule:nonzero;stroke:none"
         transform="matrix(0.13333333,0,0,-0.13333333,0,795.04)" />
      <path
         id="path133"
         d="m 1923.42,3849.76 c 110.14,0.73 264.18,-25.89 404.89,-108.87 189.44,-111.72 267.94,-197.93 280.58,-423.67 17.87,-318.68 -288.82,-734.99 -796.36,-575.81 -271.82,85.23 -422.38,267.17 -426.9,581.93 -4.08,285.1 242.09,527.89 491.4,523.89 l 46.39,2.53"
         style="fill:#f39200;fill-opacity:1;fill-rule:nonzero;stroke:none"
         transform="matrix(0.13333333,0,0,-0.13333333,0,795.04)" />
      <path
         id="path134"
         d="m 1750.27,3698.8 c 5.48,-26.55 11.67,-33.78 34.44,-43.42 22.06,-9.37 58.61,-2.72 67.95,21.07 21.04,53.65 -93.3,72.08 -102.62,26.71 l 0.23,-4.36"
         style="fill:#f9b63e;fill-opacity:1;fill-rule:nonzero;stroke:none"
         transform="matrix(0.13333333,0,0,-0.13333333,0,795.04)" />
      <path
         id="path135"
         d="m 1670.67,3675.59 c 23.7,6.14 87.28,-1.13 46.65,-34.82 -10.93,-9.08 -32.81,-10.88 -45.11,-4.43 -17.69,9.23 -21.94,24.88 -2.83,38.71 l 1.29,0.54"
         style="fill:#f9b63e;fill-opacity:1;fill-rule:nonzero;stroke:none"
         transform="matrix(0.13333333,0,0,-0.13333333,0,795.04)" />
      <path
         id="path136"
         d="m 1787.6,3631.07 c 7.59,-1.94 16.76,-7.98 17.71,-15.18 -1.36,-40.6 -123.02,-4.12 -37.84,16.83 0,0 7.54,1.01 10.62,0.73 3.08,-0.29 9.51,-2.38 9.51,-2.38"
         style="fill:#f9b63e;fill-opacity:1;fill-rule:nonzero;stroke:none"
         transform="matrix(0.13333333,0,0,-0.13333333,0,795.04)" />
      <path
         id="path137"
         d="m 2608.89,3317.22 c -7.77,138.78 -40.45,224.81 -108.47,296.48 0,-0.08 155.89,-296.25 -162.13,-651.41 -128.32,-143.3 -334.35,-238.45 -525.76,-220.88 507.54,-159.18 814.23,257.13 796.36,575.81"
         style="fill:#e58200;fill-opacity:1;fill-rule:nonzero;stroke:none"
         transform="matrix(0.13333333,0,0,-0.13333333,0,795.04)" />
      <path
         id="path138"
         d="m 4079.79,3218.03 c -82.29,-33.75 -185.81,-159.22 -186.68,-249.49 61.78,84.34 126.25,140.34 214.76,164.94 -7.77,25.39 -16.35,55.91 -26.12,78.19 l -1.96,6.36"
         style="fill:#683c11;fill-opacity:1;fill-rule:nonzero;stroke:none"
         transform="matrix(0.13333333,0,0,-0.13333333,0,795.04)" />
      <path
         id="path139"
         d="m 3738.7,3352.38 h -0.2 l 0.04,-2.78 c 3.92,-149.71 69.48,-263.41 240.28,-250.45 28.4,153.42 -97.16,236.46 -240.12,253.23"
         style="fill:#789b0d;fill-opacity:1;fill-rule:nonzero;stroke:none"
         transform="matrix(0.13333333,0,0,-0.13333333,0,795.04)" />
      <path
         id="path140"
         d="m 3738.7,3352.38 c 87.8,-55.69 184.11,-143.15 240.12,-253.23 28.4,153.42 -97.16,236.46 -240.12,253.23"
         style="fill:#95c11f;fill-opacity:1;fill-rule:nonzero;stroke:none"
         transform="matrix(0.13333333,0,0,-0.13333333,0,795.04)" />
      <path
         id="path141"
         d="m 3793.66,3075.38 c -119.59,125.27 -389.78,90.73 -457.98,-96.84 -36.09,-99.28 -35.99,-165.06 -33.44,-268.92 2.51,-103.32 33.96,-234.18 82.7,-322.1 28.21,-50.87 42.53,-69.88 93.52,-85.44 41.15,-12.54 81.7,-15.74 123.65,-37.39 79.16,-40.89 119.96,-119.43 218.75,-96.28 92.49,21.63 177.34,73.61 247.69,135.95 74.76,66.23 104.56,92.74 168.17,170.02 110.69,134.54 120.74,355.86 -34.96,440.16 -85.92,46.51 -138.94,60.84 -234.71,60.15 -36.27,-0.29 -56.05,0.89 -89.06,23.72 -22.15,15.32 -61.66,52.85 -69.87,62.26 l -14.46,14.71"
         style="fill:#e6332a;fill-opacity:1;fill-rule:nonzero;stroke:none"
         transform="matrix(0.13333333,0,0,-0.13333333,0,795.04)" />
      <path
         id="path142"
         d="m 3588.12,2966.08 c -44.68,-4.43 -83.24,15.41 -86.09,44.35 -2.87,28.95 31.02,55.98 75.7,60.4 44.69,4.42 83.26,-15.4 86.12,-44.36 2.86,-28.89 -31.06,-55.97 -75.73,-60.39"
         style="fill:#ff4c48;fill-opacity:1;fill-rule:nonzero;stroke:none"
         transform="matrix(0.13333333,0,0,-0.13333333,0,795.04)" />
      <path
         id="path143"
         d="m 3477.83,2953.45 c -7.65,-16.29 -27.09,-23.29 -43.41,-15.61 -16.31,7.66 -23.33,27.1 -15.67,43.4 7.67,16.3 27.12,23.34 43.42,15.65 16.32,-7.66 23.34,-27.1 15.66,-43.44"
         style="fill:#ff4c48;fill-opacity:1;fill-rule:nonzero;stroke:none"
         transform="matrix(0.13333333,0,0,-0.13333333,0,795.04)" />
      <path
         id="path144"
         d="m 4068.55,2304.36 c 74.76,66.23 104.56,92.74 168.17,170.02 110.69,134.54 120.74,355.86 -34.96,440.16 -0.96,0.54 -1.88,1.03 -2.85,1.52 51.13,-87.62 58.55,-189.69 -30.51,-335.4 -97.13,-158.95 -263.77,-338.54 -435.03,-404.72 24.75,-11.11 52.46,-15.76 87.49,-7.53 92.49,21.63 177.34,73.61 247.69,135.95"
         style="fill:#ce1915;fill-opacity:1;fill-rule:nonzero;stroke:none"
         transform="matrix(0.13333333,0,0,-0.13333333,0,795.04)" />
      <path
         id="path145"
         d="m 2951.27,2047.01 c 10.68,16.52 25.81,29.31 43.7,38.45 -13.51,4.1 -32.1,-2.95 -46.1,-22.72 -4.38,-6.31 -12.98,-19 -18.4,-33.32 2.79,-3.3 5.6,-6.76 8.47,-10.35 3.08,10.52 7.2,19.94 12.33,27.94"
         style="fill:#683c11;fill-opacity:1;fill-rule:nonzero;stroke:none"
         transform="matrix(0.13333333,0,0,-0.13333333,0,795.04)" />
      <path
         id="path146"
         d="m 2938.94,2019.07 c 8.79,-11.02 17.95,-23.3 27.52,-37.13 6.95,9.28 56.69,71.27 41.1,94.26 -3.11,4.65 -7.5,7.72 -12.59,9.26 -17.89,-9.14 -33.02,-21.93 -43.7,-38.45 -5.13,-8 -9.25,-17.42 -12.33,-27.94"
         style="fill:#683c11;fill-opacity:1;fill-rule:nonzero;stroke:none"
         transform="matrix(0.13333333,0,0,-0.13333333,0,795.04)" />
      <path
         id="path147"
         d="m 4918.3,2920.46 c -17.98,11.83 -79.18,45.44 -105.68,54.26 21.45,-38.03 58.28,-43.49 105.68,-54.26"
         style="fill:#683c11;fill-opacity:1;fill-rule:nonzero;stroke:none"
         transform="matrix(0.13333333,0,0,-0.13333333,0,795.04)" />
      <path
         id="path148"
         d="m 4918.3,2920.46 c -16.54,-27.45 -32.46,-50.47 -47.21,-70.2 15.55,19.18 26.96,33.3 47.21,70.2"
         style="fill:#683c11;fill-opacity:1;fill-rule:nonzero;stroke:none"
         transform="matrix(0.13333333,0,0,-0.13333333,0,795.04)" />
      <path
         id="path149"
         d="m 4771.35,2905.59 c 28.31,-8.33 69,-49.25 97.64,-57.95 l 2.1,2.62 c 14.75,19.73 30.67,42.75 47.21,70.2 -47.4,10.77 -84.23,16.23 -105.68,54.26 -17.13,-25.19 -30.28,-47.9 -41.27,-69.13"
         style="fill:#683c11;fill-opacity:1;fill-rule:nonzero;stroke:none"
         transform="matrix(0.13333333,0,0,-0.13333333,0,795.04)" />
      <path
         id="path150"
         d="m 4286.35,2386.82 c -113.46,-133.69 -355.72,-335.9 -534.87,-364.96 -264,-42.59 -336.27,-7.52 -614.86,71.88 -70.63,20.84 -151.04,6.45 -185.35,-46.73 -39.28,-60.91 -19.49,-204.72 75.07,-285.82 173.27,-145.73 139.15,-119.44 360.44,-228.78 221.66,-109.19 433.63,-129.33 612.92,-96.19 181.43,33.71 330.18,120.68 474.89,239.28 56.68,53 229.04,225.17 308.89,423.57 81.51,191.71 124.53,404.13 15.56,583.18 -42.59,69.93 29.55,89.37 119.26,238.21 -47.4,10.77 -84.23,16.23 -105.68,54.26 -87.05,-127.55 -68.23,-175.47 -187,-260.51 -91.31,-65.37 -254.43,-228.65 -339.27,-327.39"
         style="fill:#f7d333;fill-opacity:1;fill-rule:nonzero;stroke:none"
         transform="matrix(0.13333333,0,0,-0.13333333,0,795.04)" />
      <path
         id="path151"
         d="m 2965.17,1980.28 c -14.74,-8.94 -28.33,-3.5 -34.39,6.33 -15.96,25.95 9.37,63.59 18.09,76.13 19.26,27.21 47.29,30.43 58.69,13.46 15.59,-22.99 -34.15,-84.98 -41.1,-94.26 l -1.29,-1.66"
         style="fill:#683c11;fill-opacity:1;fill-rule:nonzero;stroke:none"
         transform="matrix(0.13333333,0,0,-0.13333333,0,795.04)" />
      <path
         id="path152"
         d="m 4812.62,2974.72 c -17.13,-25.19 -30.28,-47.9 -41.27,-69.13 28.31,-8.33 69,-49.25 97.64,-57.95 16.65,20.61 28.16,34.28 49.31,72.82 -17.98,11.83 -79.18,45.44 -105.68,54.26"
         style="fill:#683c11;fill-opacity:1;fill-rule:nonzero;stroke:none"
         transform="matrix(0.13333333,0,0,-0.13333333,0,795.04)" />
      <path
         id="path153"
         d="m 4628.98,2113.12 c -195.54,-281 -387.17,-414.81 -730.15,-475.82 -243.62,-43.35 -792.34,142.51 -932.37,344.64 l -1.29,-1.66 c -13.27,-8.04 -25.58,-4.43 -32.33,3.54 -5.06,-69.54 24,-163.01 93.5,-222.63 173.27,-145.73 139.15,-119.44 360.44,-228.78 221.66,-109.19 433.63,-129.33 612.92,-96.19 181.43,33.71 330.18,120.68 474.89,239.28 56.68,53 229.04,225.17 308.89,423.57 81.51,191.71 124.53,404.13 15.56,583.18 -3.65,6 -6.4,11.6 -8.43,16.98 l -0.04,0.01 c 0,0 57.71,-270.99 -161.59,-586.12"
         style="fill:#edc10c;fill-opacity:1;fill-rule:nonzero;stroke:none"
         transform="matrix(0.13333333,0,0,-0.13333333,0,795.04)" />
      <path
         id="path154"
         d="m 3463.87,3364.97 c -78.73,-59.08 -154.62,-222.33 -130.39,-319.2 42.68,107.52 96.1,185.47 184.04,236.5 -15.4,24.98 -33.11,55.27 -49.77,76.38 l -3.88,6.32"
         style="fill:#683c11;fill-opacity:1;fill-rule:nonzero;stroke:none"
         transform="matrix(0.13333333,0,0,-0.13333333,0,795.04)" />
      <path
         id="path155"
         d="m 3061.17,3413.8 -0.23,-0.04 0.85,-2.97 c 45.91,-159.27 147.8,-262.75 327.09,-201.28 -12.34,172.17 -169.93,226.19 -327.71,204.29"
         style="fill:#789b0d;fill-opacity:1;fill-rule:nonzero;stroke:none"
         transform="matrix(0.13333333,0,0,-0.13333333,0,795.04)" />
      <path
         id="path156"
         d="m 3061.17,3413.8 c 109.55,-35.16 237.06,-102.04 327.71,-204.29 -12.34,172.17 -169.93,226.19 -327.71,204.29"
         style="fill:#95c11f;fill-opacity:1;fill-rule:nonzero;stroke:none"
         transform="matrix(0.13333333,0,0,-0.13333333,0,795.04)" />
      <path
         id="path157"
         d="m 3363.45,3049.97 c 181.8,-40.82 145.4,-401.84 173.84,-477.72 33.58,-89.72 97.26,-130.64 126.38,-224.51 22.79,-73.48 30.07,-174.22 -8.04,-278.59 -132.26,-362.3 -977.42,-202.09 -900.41,226.12 14.8,82.24 47.79,171.9 106.34,231.24 55.6,56.33 85.54,78.91 113.38,159.03 61.84,177.92 127.02,419.65 382.33,365.99 l 6.18,-1.56"
         style="fill:#95c11f;fill-opacity:1;fill-rule:nonzero;stroke:none"
         transform="matrix(0.13333333,0,0,-0.13333333,0,795.04)" />
      <path
         id="path158"
         d="m 3234.66,2849.28 c -27.3,-41.52 -71.22,-60.84 -98.09,-43.16 -26.88,17.66 -26.53,65.64 0.76,107.15 27.32,41.52 71.22,60.86 98.12,43.18 26.85,-17.69 26.51,-65.67 -0.79,-107.17"
         style="fill:#b0d835;fill-opacity:1;fill-rule:nonzero;stroke:none"
         transform="matrix(0.13333333,0,0,-0.13333333,0,795.04)" />
      <path
         id="path159"
         d="m 3139.38,2734.48 c -3.68,-19.61 -22.52,-32.54 -42.14,-28.87 -19.6,3.65 -32.51,22.51 -28.87,42.11 3.67,19.61 22.53,32.54 42.13,28.92 19.62,-3.71 32.54,-22.57 28.88,-42.16"
         style="fill:#b0d835;fill-opacity:1;fill-rule:nonzero;stroke:none"
         transform="matrix(0.13333333,0,0,-0.13333333,0,795.04)" />
      <path
         id="path160"
         d="m 3655.63,2069.15 c 38.11,104.37 30.83,205.11 8.04,278.59 -29.12,93.87 -92.8,134.79 -126.38,224.51 -18.34,48.97 -9.73,216.51 -50.08,340.24 -0.02,-0.1 -35.73,-231.84 41.62,-459.59 30.82,-90.8 55.94,-237.27 33.59,-301.8 -22.39,-64.57 -30.83,-176.13 -240.55,-281.43 152.08,9.08 287.15,71.82 333.76,199.48"
         style="fill:#87ad12;fill-opacity:1;fill-rule:nonzero;stroke:none"
         transform="matrix(0.13333333,0,0,-0.13333333,0,795.04)" />
      <path
         id="path161"
         d="m 3023.24,3240.71 c -103.71,-5.5 -266.2,-104 -301.91,-203.2 100.61,69.2 193.25,106.1 300.33,99.17 1.18,30.96 3.47,67.91 1.27,96.21 l 0.31,7.82"
         style="fill:#683c11;fill-opacity:1;fill-rule:nonzero;stroke:none"
         transform="matrix(0.13333333,0,0,-0.13333333,0,795.04)" />
      <path
         id="path162"
         d="m 2698.93,3520.18 -0.2,0.11 -1.04,-3.12 c -53.33,-166.54 -24.87,-317.18 168.44,-368.69 90.37,158.2 -16.04,298.17 -167.2,371.7"
         style="fill:#789b0d;fill-opacity:1;fill-rule:nonzero;stroke:none"
         transform="matrix(0.13333333,0,0,-0.13333333,0,795.04)" />
      <path
         id="path163"
         d="m 2698.93,3520.18 c 75.37,-95.19 147.83,-228.78 167.2,-371.7 90.37,158.2 -16.04,298.17 -167.2,371.7"
         style="fill:#95c11f;fill-opacity:1;fill-rule:nonzero;stroke:none"
         transform="matrix(0.13333333,0,0,-0.13333333,0,795.04)" />
      <path
         id="path164"
         d="m 2652.82,3193.62 c -83.58,184.16 -394.79,250.19 -542.22,69.63 -78.03,-95.56 -103.25,-168.11 -140.48,-283.59 -37.03,-114.89 -52.72,-271.28 -32.85,-386.96 11.49,-66.97 19.97,-93.45 70.18,-130.23 40.54,-29.67 84,-48.83 121.93,-88.87 71.52,-75.59 86.27,-177.87 204.09,-190.43 110.32,-11.76 223.87,12.82 325.44,54.47 107.96,44.26 151.02,62.02 250.9,122.7 173.88,105.7 270.21,345.86 131.01,498.77 -76.81,84.37 -129.76,120.6 -235.59,156.7 -40.11,13.66 -61.49,22.6 -89.06,60.49 -18.52,25.42 -47.64,81.99 -53.06,95.51 l -10.29,21.81"
         style="fill:#e6332a;fill-opacity:1;fill-rule:nonzero;stroke:none"
         transform="matrix(0.13333333,0,0,-0.13333333,0,795.04)" />
      <path
         id="path165"
         d="m 2384.12,3152.31 c -50.96,12.33 -85.8,49.06 -77.84,82.02 7.98,33.02 55.78,49.78 106.74,37.45 50.98,-12.33 85.85,-49.06 77.85,-82.08 -7.98,-32.99 -55.77,-49.73 -106.75,-37.39"
         style="fill:#ff4c48;fill-opacity:1;fill-rule:nonzero;stroke:none"
         transform="matrix(0.13333333,0,0,-0.13333333,0,795.04)" />
      <path
         id="path166"
         d="m 2257.68,3180.88 c -14.73,-15.04 -38.87,-15.28 -53.9,-0.54 -15.03,14.73 -15.28,38.87 -0.54,53.9 14.74,15.02 38.86,15.27 53.89,0.55 15.03,-14.75 15.29,-38.87 0.55,-53.91"
         style="fill:#ff4c48;fill-opacity:1;fill-rule:nonzero;stroke:none"
         transform="matrix(0.13333333,0,0,-0.13333333,0,795.04)" />
      <path
         id="path167"
         d="m 2658.91,2237.64 c 107.96,44.26 151.02,62.02 250.9,122.7 173.88,105.7 270.21,345.86 131.01,498.77 -0.86,0.94 -1.69,1.86 -2.55,2.76 22.63,-116.3 -8.5,-231.67 -162.82,-358.03 -168.33,-137.82 -421.24,-271.65 -635.53,-278.66 22.98,-21.81 51.77,-37.58 93.55,-42.01 110.32,-11.76 223.87,12.82 325.44,54.47"
         style="fill:#ce1915;fill-opacity:1;fill-rule:nonzero;stroke:none"
         transform="matrix(0.13333333,0,0,-0.13333333,0,795.04)" />
      <path
         id="path168"
         d="m 1121.7,3382.8 c 0,0 895.88,-657.3 1642.23,-1031.39 746.31,-374.11 1749.8,-792.26 1749.8,-792.26 0,0 -541.11,-679.24 -986.02,-845.529 C 2924.62,488.211 2436.18,672.23 2006.74,907.891 1507.65,1181.8 1029.16,1551.21 899.82,2155.79 789.336,2672.21 1121.7,3382.8 1121.7,3382.8"
         style="fill:#ededed;fill-opacity:1;fill-rule:nonzero;stroke:none"
         transform="matrix(0.13333333,0,0,-0.13333333,0,795.04)" />
      <path
         id="path169"
         d="m 1580.34,2525.12 c -44.53,-183.82 -177.13,-309.49 -296.13,-280.68 -119.01,28.89 -179.4,201.27 -134.86,385.09 44.56,183.85 177.13,309.52 296.15,280.67 119.01,-28.81 179.37,-201.23 134.84,-385.08"
         style="fill:#ffffff;fill-opacity:1;fill-rule:nonzero;stroke:none"
         transform="matrix(0.13333333,0,0,-0.13333333,0,795.04)" />
      <path
         id="path170"
         d="m 1459.74,2042.44 c 12.04,-74.97 -38.94,-145.52 -113.91,-157.56 -74.98,-12.06 -145.51,38.96 -157.56,113.9 -12.05,75.01 38.94,145.52 113.9,157.56 74.97,12.07 145.51,-38.93 157.57,-113.9"
         style="fill:#ffffff;fill-opacity:1;fill-rule:nonzero;stroke:none"
         transform="matrix(0.13333333,0,0,-0.13333333,0,795.04)" />
      <path
         id="path171"
         d="m 3504.77,746.762 c 383.18,143.207 858.08,655.648 960.58,807.128 l -457.53,194.41 c 0,0 -124.16,-522.73 -689.68,-813.558 C 2909.31,724.5 2284.49,699.031 1491.75,1298.21 1666.88,1112.49 1971.89,947.582 1983.82,941.02 2413.26,705.34 2901.71,521.352 3504.77,746.762"
         style="fill:#dadada;fill-opacity:1;fill-rule:nonzero;stroke:none"
         transform="matrix(0.13333333,0,0,-0.13333333,0,795.04)" />
    </g>
  </g>
</svg>
