<svg width="140" height="140" viewBox="0 0 140 140" fill="none" xmlns="http://www.w3.org/2000/svg">
<path d="M119.061 119.061C146.298 91.824 146.298 47.6645 119.061 20.4277C91.8239 -6.80923 47.6644 -6.80923 20.4276 20.4277C-6.80926 47.6645 -6.80916 91.824 20.4276 119.061C47.6645 146.298 91.8239 146.298 119.061 119.061Z" fill="#FFC7AA"/>
<mask id="mask0_181_3185" style="mask-type:luminance" maskUnits="userSpaceOnUse" x="0" y="0" width="140" height="140">
<path d="M119.061 119.061C146.298 91.824 146.298 47.6645 119.061 20.4277C91.8239 -6.80923 47.6644 -6.80923 20.4276 20.4277C-6.80926 47.6645 -6.80916 91.824 20.4276 119.061C47.6645 146.298 91.8239 146.298 119.061 119.061Z" fill="white"/>
</mask>
<g mask="url(#mask0_181_3185)">
<path d="M58.5383 17.7252C58.5383 17.7252 46.0153 18.5782 39.1593 28.7402C32.3033 38.9032 34.6343 52.4782 37.6513 63.8602C40.6683 75.2419 29.0123 88.7649 31.6173 98.3209C34.2223 107.877 58.5383 101.742 58.5383 101.742V17.7252Z" fill="#7A615A"/>
<path d="M93.6727 64.9282C93.6727 64.9282 92.5797 69.8942 96.7227 80.4529C100.866 91.0119 92.2827 100.199 92.2827 100.199L77.5208 95.3999L79.5987 68.3412L93.6727 64.9282Z" fill="#7A615A"/>
<path d="M98.4978 37.2582C98.4978 37.2582 99.6988 50.7662 93.7688 54.6392C87.8388 58.5132 92.2838 41.0562 92.2838 41.0562L98.4978 37.2582Z" fill="#7A615A"/>
<path d="M122.258 142.572L12.6772 138.863C12.6772 138.863 14.4142 118.571 19.9242 107.206C20.5292 105.968 21.1722 104.826 21.8732 103.837C31.0982 90.6769 55.8633 86.1649 55.8633 86.1649L83.3538 88.7659C83.3538 88.7659 96.6388 90.7719 105.384 99.1139C107.073 100.727 108.696 103.213 110.212 106.16C116.517 118.436 122.258 142.572 122.258 142.572Z" fill="#333E67"/>
<path d="M80.5279 91.7899C75.1369 113.735 53.9475 93.6249 53.1465 86.1659C56.4895 75.6709 55.3705 64.4501 55.3705 64.4501L80.7339 73.4259C80.6759 74.1659 80.6159 74.9089 80.5559 75.6549C80.2769 79.0969 80.0119 82.6159 80.1079 86.3349C80.1539 88.1029 80.2809 89.9159 80.5279 91.7899Z" fill="#E69680"/>
<path d="M80.1078 86.3339C66.7984 83.4219 58.1064 69.7452 58.1064 69.7452L80.5558 75.6539C80.2778 79.0959 80.0128 82.6159 80.1078 86.3339Z" fill="#161F29"/>
<path d="M86.2148 54.6053C86.2148 54.6053 88.1288 48.3602 93.2108 49.7322C98.2938 51.1042 98.6418 67.9693 88.9888 67.5323L86.2148 54.6053Z" fill="#E06C5C"/>
<path d="M93.7488 53.4802C93.7428 54.0372 93.7158 54.6302 93.6678 55.2562C93.6168 55.9542 93.5388 56.6863 93.4368 57.4513C93.3208 58.3263 93.1708 59.2423 92.9928 60.1833C92.8888 60.7503 92.7728 61.3242 92.6458 61.9052C90.6868 70.9412 86.9068 75.085 82.5808 77.197C75.4538 80.679 57.7933 73.166 55.0413 66.4773C53.0513 61.6433 53.0833 63.6443 52.5543 50.6203C52.0223 37.5973 57.3293 30.4343 57.3293 30.4343C64.5223 22.1923 77.3788 23.4282 85.7338 28.8762C94.0908 34.3202 93.8208 44.4612 93.7488 53.4802Z" fill="#E69680"/>
<path d="M82.4888 65.4592C81.8588 65.5662 81.1418 65.5992 80.3298 65.5242C76.1298 65.1322 72.9598 61.8072 72.8268 61.6652C72.6238 61.4492 72.6338 61.1092 72.8498 60.9062C73.0658 60.7032 73.4048 60.7132 73.6088 60.9292C73.6388 60.9612 76.6398 64.1002 80.4288 64.4542C84.1808 64.8042 85.4948 62.4492 85.5068 62.4252C85.6478 62.1632 85.9738 62.0662 86.2348 62.2072C86.4968 62.3472 86.5938 62.6732 86.4538 62.9342C86.3998 63.0352 85.3168 64.9812 82.4888 65.4592Z" fill="#302922"/>
<path d="M83.455 68.5392C83.709 68.3582 83.858 68.2232 83.882 68.2012C84.17 67.9342 84.188 67.4852 83.921 67.1962C83.656 66.9082 83.208 66.8862 82.918 67.1552C82.833 67.2322 80.92 68.9312 78.48 68.0292C78.112 67.8932 77.703 68.0812 77.567 68.4492C77.431 68.8172 77.619 69.2262 77.987 69.3622C80.517 70.2982 82.593 69.1532 83.455 68.5392Z" fill="#E06C5C"/>
<path d="M80.3018 59.8842C79.9958 59.9152 79.6708 59.9172 79.3258 59.8812C78.9928 59.8452 78.7518 59.5472 78.7868 59.2152C78.8218 58.8822 79.1218 58.6412 79.4528 58.6762C80.7668 58.8152 81.7188 58.1962 82.1968 57.7852C80.3068 55.2022 79.2858 48.7632 79.2408 48.4722C79.1888 48.1412 79.4158 47.8322 79.7458 47.7802C80.0838 47.7322 80.3868 47.9552 80.4378 48.2852C80.7498 50.2882 81.8988 55.8292 83.4458 57.3922C83.6618 57.6102 83.6798 57.9552 83.4898 58.1952C83.4348 58.2642 82.2848 59.6832 80.3018 59.8842Z" fill="#161F29"/>
<path d="M75.1639 41.5783C75.1639 41.5783 71.7719 40.0513 68.7133 42.2183C67.0043 43.4293 68.0043 45.2163 70.2143 44.3403C71.7569 43.7283 72.6129 43.4993 74.3849 43.6633C76.1559 43.8273 76.0159 41.8483 75.1639 41.5783Z" fill="#7A615A"/>
<path d="M85.0899 42.0922C85.0899 42.0922 88.5619 40.7562 91.4949 43.0922C93.1339 44.3972 92.0359 46.1252 89.8789 45.1272C88.3729 44.4302 87.5299 44.1542 85.7529 44.2182C83.9759 44.2812 84.2239 42.3132 85.0899 42.0922Z" fill="#7A615A"/>
<path d="M55.8094 48.9552C55.8094 48.9552 52.7754 43.7282 47.4654 46.0722C42.1564 48.4172 44.5954 66.8522 55.0404 64.7632L55.8094 48.9552Z" fill="#E69680"/>
<path d="M56.7114 39.0122C56.7114 39.0122 59.6584 44.8362 58.0664 48.2102C56.4744 51.5852 56.8054 55.5812 56.8054 55.5812C56.8054 55.5812 50.7844 50.6492 52.2654 42.8142C53.7464 34.9802 56.7114 39.0122 56.7114 39.0122Z" fill="#7A615A"/>
<path d="M53.6273 57.5793C53.6973 57.8463 53.5373 58.1183 53.2703 58.1883C53.2333 58.1983 53.1983 58.2033 53.1623 58.2053C52.9333 58.2143 52.7203 58.0603 52.6603 57.8303C52.6523 57.8003 52.1833 56.0563 50.9243 54.4753C49.9003 55.3953 49.0863 56.2463 49.0753 56.2563C48.9823 56.3563 48.8583 56.4063 48.7333 56.4103C48.6043 56.4153 48.4743 56.3693 48.3693 56.2743C48.1713 56.0843 48.1653 55.7683 48.3543 55.5673C48.3913 55.5283 49.2053 54.6783 50.2543 53.7333C49.4573 52.9593 48.4293 52.3103 47.1233 52.0623C46.8533 52.0103 46.6773 51.7493 46.7293 51.4793C46.7813 51.2063 47.0423 51.0293 47.3123 51.0823C52.1283 52.0043 53.5683 57.3523 53.6273 57.5793Z" fill="#161F29"/>
<path d="M72.2148 60.4422C67.7102 60.8982 63.6742 57.6042 63.2182 53.0992C62.7622 48.5952 66.0562 44.5591 70.5612 44.1031C75.0668 43.6471 79.1018 46.9412 79.5578 51.4452C80.0138 55.9512 76.7198 59.9862 72.2148 60.4422ZM70.6832 45.3092C66.8432 45.6982 64.0352 49.1382 64.4232 52.9772C64.8122 56.8172 68.2522 59.6252 72.0918 59.2372C75.9318 58.8482 78.7398 55.4082 78.3508 51.5682C77.9638 47.7282 74.5228 44.9202 70.6832 45.3092Z" fill="#FDFEFF"/>
<path d="M89.6188 45.8223C85.7788 46.2103 82.9707 49.6513 83.3597 53.4903C83.7487 57.3303 87.1887 60.1383 91.0287 59.7493C94.8687 59.3613 97.6768 55.9203 97.2888 52.0803C96.8998 48.2413 93.4598 45.4333 89.6188 45.8223ZM91.1508 60.9553C86.6458 61.4113 82.6097 58.1173 82.1537 53.6123C81.6977 49.1083 84.9918 45.0723 89.4968 44.6163C94.0018 44.1603 98.0378 47.4543 98.4938 51.9583C98.9498 56.4643 95.6558 60.4993 91.1508 60.9553Z" fill="#FDFEFF"/>
<path d="M82.2738 53.4072C81.0538 52.0552 79.6148 53.1022 79.4538 53.2262L78.7058 52.2732C79.5468 51.6062 81.5678 50.8142 83.1748 52.5952L82.2738 53.4072Z" fill="#FDFEFF"/>
<path d="M63.9453 50.7013C63.7673 50.7193 63.5823 50.6583 63.4493 50.5203C63.3833 50.4673 62.3434 49.6803 57.9934 49.4203C57.6594 49.4003 57.4043 49.1133 57.4253 48.7793C57.4443 48.4443 57.7393 48.1843 58.0663 48.2113C63.0733 48.5103 64.1733 49.5053 64.3433 49.7023C64.5623 49.9563 64.5333 50.3383 64.2813 50.5563C64.1813 50.6413 64.0653 50.6893 63.9453 50.7013Z" fill="#FDFEFF"/>
<path d="M97.9517 52.6221C97.8297 52.6341 97.7017 52.6101 97.5887 52.5431C96.6527 52.0041 94.8987 51.9421 94.3017 51.9641C93.9677 51.9771 93.6867 51.7151 93.6737 51.3811C93.6617 51.0471 93.9207 50.7611 94.2577 50.7531C94.3597 50.7501 96.7687 50.6711 98.1947 51.4941C98.4857 51.6611 98.5847 52.0321 98.4167 52.3211C98.3137 52.4971 98.1397 52.6031 97.9517 52.6221Z" fill="#FDFEFF"/>
<path d="M70.3213 13.4241C70.3213 13.4241 88.2279 12.3651 95.8199 23.2511C103.411 34.1371 97.0589 43.9751 97.0589 43.9751C97.0589 43.9751 85.9399 46.1821 71.9039 30.8421C71.9039 30.8421 70.5693 43.3501 60.1863 43.9751C49.8033 44.6011 52.2503 34.7952 52.2503 34.7952C52.2503 34.7952 48.2763 16.3201 70.3213 13.4241Z" fill="#7A615A"/>
<path d="M72.9208 51.5391C72.9758 52.9691 72.3338 54.1552 71.4878 54.1872C70.6403 54.2192 69.9103 53.0861 69.8553 51.6561C69.8003 50.2261 70.4423 49.0402 71.2888 49.0082C72.1358 48.9762 72.8658 50.1091 72.9208 51.5391Z" fill="#161F29"/>
<path d="M88.0519 52.2143C88.1069 53.6443 87.464 54.8302 86.618 54.8622C85.771 54.8942 85.0409 53.7613 84.9859 52.3313C84.9309 50.9013 85.5739 49.7153 86.4199 49.6833C87.2669 49.6513 87.9969 50.7843 88.0519 52.2143Z" fill="#161F29"/>
<path d="M110.211 106.159C101.994 107.848 87.7498 109.797 64.3863 110.344C32.8063 111.083 22.9573 108.626 19.9243 107.205C20.5293 105.967 21.1723 104.825 21.8733 103.836C31.0983 90.6759 55.8633 86.1639 55.8633 86.1639L83.3538 88.7649C83.3538 88.7649 96.6388 90.7709 105.384 99.1129C107.072 100.726 108.694 103.212 110.211 106.159Z" fill="#E69680"/>
</g>
</svg>
