<svg width="136" height="34" viewBox="0 0 136 34" fill="none" xmlns="http://www.w3.org/2000/svg">
<path d="M10.5266 0.211305C10.6213 0.262742 10.7153 0.315326 10.8086 0.369306C10.8459 0.390457 10.8832 0.411607 10.9216 0.433398C11.8169 0.965411 12.5122 1.86947 13.0392 2.74862C13.0707 2.7998 13.1022 2.85099 13.1346 2.90372C13.6998 3.85079 14.0468 4.90895 14.328 5.97061C14.3426 5.94474 14.3572 5.91886 14.3723 5.89219C14.6901 5.33531 15.0264 4.82292 15.4423 4.33445C15.5646 4.2009 15.5646 4.2009 15.6168 4.08699C15.6495 4.08699 15.6822 4.08699 15.7159 4.08699C15.7291 4.05752 15.7423 4.02804 15.7559 3.99768C15.8164 3.88616 15.8761 3.81794 15.9682 3.73148C15.9986 3.70283 16.0291 3.67418 16.0604 3.64465C16.1092 3.59984 16.1092 3.59984 16.1589 3.55412C16.1924 3.52319 16.2259 3.49226 16.2603 3.46039C16.527 3.21711 16.803 2.99827 17.1038 2.79819C17.1457 2.7695 17.1875 2.74081 17.2307 2.71125C18.4057 1.93082 19.8444 1.42511 21.2645 1.67166C21.6044 1.75229 21.8945 1.8682 22.1103 2.15379C22.3512 2.57922 22.2331 3.0281 22.1097 3.47589C22.0495 3.66568 21.9837 3.8517 21.912 4.03742C21.8997 4.0695 21.8874 4.10159 21.8747 4.13465C21.1351 6.01834 19.672 7.35976 17.9328 8.32398C17.7932 8.39975 17.7932 8.39975 17.6491 8.49864C17.6892 8.48642 17.7293 8.4742 17.7707 8.46162C19.1751 8.03476 19.1751 8.03476 19.8098 7.87453C19.9982 7.82827 19.9982 7.82827 20.1771 7.7551C20.3217 7.73636 20.4658 7.71995 20.6108 7.70553C20.6745 7.69907 20.6745 7.69907 20.7395 7.69249C22.8815 7.47929 24.9297 7.73362 26.6707 9.09347C26.8949 9.28191 27.1064 9.48297 27.3151 9.6883C27.3537 9.72465 27.3922 9.76101 27.432 9.79847C27.5133 9.88657 27.5133 9.88657 27.5133 9.98571C27.5461 9.98571 27.5788 9.98571 27.6125 9.98571C27.6758 10.055 27.6758 10.055 27.7474 10.153C27.7739 10.1892 27.8004 10.2254 27.8277 10.2626C27.8699 10.3219 27.8699 10.3219 27.913 10.3823C27.9419 10.4226 27.9708 10.463 28.0005 10.5046C28.9956 11.9169 29.4595 13.5378 29.6448 15.24C29.6514 15.3 29.658 15.3599 29.6648 15.4217C29.6808 15.609 29.6895 15.7957 29.6944 15.9836C29.6957 16.0336 29.6971 16.0836 29.6985 16.1352C29.8069 20.9423 27.8638 25.7695 24.2593 30.181C24.19 30.2621 24.1237 30.3451 24.0571 30.4283C24.0013 30.492 24.0013 30.492 23.9444 30.5569C23.9116 30.5569 23.8789 30.5569 23.8452 30.5569C23.8318 30.5865 23.8185 30.6161 23.8047 30.6466C23.7463 30.7548 23.6904 30.8213 23.6016 30.9054C23.5725 30.933 23.5433 30.9607 23.5133 30.9891C23.4818 31.0182 23.4502 31.0474 23.4177 31.0774C23.3848 31.1078 23.3519 31.1383 23.318 31.1696C22.2682 32.1254 20.9691 32.9611 19.5327 33.1345C19.4899 33.1399 19.4471 33.1453 19.403 33.1509C18.4127 33.2586 17.4598 33.1155 16.509 32.8371C16.376 32.8002 16.2427 32.7644 16.1093 32.7286C16.0505 32.7126 15.9916 32.6965 15.931 32.68C15.1063 32.4746 14.2428 32.55 13.4357 32.7875C11.5491 33.3317 9.85778 33.3088 8.11633 32.3476C7.56826 32.0211 7.00975 31.6408 6.54561 31.2013C6.54561 31.1686 6.54561 31.1358 6.54561 31.1021C6.50336 31.084 6.50336 31.084 6.46026 31.0655C6.32648 30.9915 6.2351 30.9036 6.12679 30.7956C6.08497 30.754 6.04315 30.7124 6.00006 30.6695C5.93426 30.603 5.93426 30.603 5.86713 30.5352C5.79971 30.4673 5.79971 30.4673 5.73092 30.3981C5.43695 30.0997 5.16455 29.7989 4.90983 29.4664C4.86307 29.4084 4.81614 29.3506 4.76906 29.2929C4.04081 28.3986 3.41155 27.4446 2.83696 26.4452C2.78092 26.3479 2.72421 26.2511 2.66741 26.1543C0.553457 22.5174 -0.666106 17.7784 0.382827 13.6208C0.460834 13.3309 0.551133 13.046 0.646889 12.7616C0.663531 12.7106 0.663531 12.7106 0.680508 12.6586C1.05166 11.5321 1.67297 10.4625 2.53051 9.63873C2.56834 9.59988 2.60617 9.56103 2.64514 9.521C3.70793 8.48293 5.00572 7.82013 6.49604 7.65596C6.54531 7.65053 6.59457 7.6451 6.64533 7.6395C8.16812 7.49902 9.65754 7.74502 11.106 8.21052C11.1576 8.22702 11.1576 8.22702 11.2103 8.24386C11.3079 8.27527 11.4053 8.30731 11.5025 8.33967C11.5588 8.35834 11.615 8.37701 11.6729 8.39624C11.7999 8.44907 11.7999 8.44907 11.8495 8.54821C11.89 8.55428 11.9305 8.56035 11.9723 8.5666C12.204 8.60797 12.3989 8.70091 12.6116 8.79915C12.6734 8.82718 12.6735 8.82718 12.7365 8.85579C12.8375 8.90166 12.9384 8.94784 13.0392 8.99433C12.2977 6.47073 11.3665 4.52837 9.16174 2.98369C8.47131 2.49934 8.47131 2.49934 8.34869 2.09183C8.26465 1.55342 8.56561 0.88192 8.86606 0.446758C9.31785 -0.115049 9.9139 -0.0911636 10.5266 0.211305ZM21.1298 14.4819C21.0442 14.5681 20.9585 14.6541 20.8728 14.7401C20.6914 14.9221 20.5101 15.1043 20.3289 15.2865C20.1175 15.4991 19.906 15.7116 19.6944 15.9238C19.61 16.0085 19.5259 16.0933 19.4417 16.1781C19.3902 16.2297 19.3387 16.2814 19.2872 16.3331C19.2424 16.3782 19.1975 16.4233 19.1513 16.4697C19.037 16.5784 19.037 16.5784 18.8883 16.6775C18.8883 16.7103 18.8883 16.743 18.8883 16.7767C18.8392 16.793 18.7902 16.8094 18.7396 16.8262C18.6538 16.9068 18.573 16.9891 18.4918 17.0741C18.4207 17.1456 18.3496 17.2169 18.2783 17.2882C18.192 17.3748 18.1057 17.4614 18.0194 17.548C17.5373 18.0317 17.055 18.5152 16.5724 18.9985C16.2806 19.2909 15.9889 19.5833 15.6974 19.876C15.4424 20.1319 15.1872 20.3877 14.9319 20.6433C14.797 20.7783 14.6622 20.9134 14.5276 21.0487C14.4009 21.1761 14.274 21.3032 14.1469 21.4302C14.0786 21.4985 14.0105 21.5671 13.9424 21.6358C13.3247 22.2515 13.3247 22.2515 13.033 22.3098C12.4785 22.1893 12.0005 21.5443 11.6187 21.1572C11.5304 21.0682 11.4421 20.9793 11.3538 20.8904C11.2164 20.7518 11.0791 20.6131 10.942 20.4743C10.8084 20.3392 10.6745 20.2045 10.5406 20.0697C10.4993 20.0278 10.458 19.9858 10.4154 19.9425C10.3773 19.9043 10.3392 19.866 10.3 19.8266C10.2497 19.7758 10.2497 19.7758 10.1984 19.724C10.1205 19.6409 10.1205 19.6409 10.0154 19.6517C10.0032 19.6231 9.99091 19.5944 9.97827 19.5649C9.90724 19.4371 9.82787 19.3512 9.71803 19.2551C9.68532 19.2551 9.6526 19.2551 9.61889 19.2551C9.61889 19.2224 9.61889 19.1897 9.61889 19.156C9.54551 19.0798 9.54551 19.0798 9.4485 19.0011C9.33352 18.9045 9.22156 18.8082 9.1141 18.7033C8.82233 18.4214 8.56274 18.277 8.15293 18.2577C7.84879 18.2722 7.61755 18.3599 7.38829 18.5612C7.17892 18.7993 7.03432 18.9893 7.02581 19.3109C7.02396 19.356 7.02211 19.4011 7.0202 19.4476C7.08355 19.9114 7.41265 20.2 7.72981 20.5138C7.78011 20.5643 7.83036 20.6148 7.88058 20.6653C8.01634 20.8018 8.15272 20.9376 8.28924 21.0733C8.43242 21.2158 8.57509 21.3588 8.71784 21.5017C8.95755 21.7416 9.19766 21.981 9.43801 22.2202C9.71543 22.4963 9.99222 22.773 10.2687 23.0501C10.5353 23.3172 10.8023 23.5839 11.0695 23.8504C11.183 23.9636 11.2962 24.0769 11.4094 24.1903C11.5428 24.3239 11.6766 24.4572 11.8106 24.5902C11.8596 24.6389 11.9085 24.6877 11.9572 24.7367C12.4357 25.2211 12.4357 25.2211 13.0721 25.4065C13.3453 25.3951 13.5627 25.316 13.7672 25.1353C13.805 25.0923 13.8429 25.0494 13.8818 25.0051C13.9299 24.9663 13.9779 24.9274 14.0274 24.8874C14.1715 24.7699 14.2867 24.6371 14.4054 24.4945C14.5381 24.3377 14.6789 24.1973 14.8422 24.0726C14.9529 23.9804 15.0363 23.8935 15.1288 23.7845C15.3172 23.567 15.5174 23.3639 15.7221 23.1618C15.7563 23.1278 15.7905 23.0939 15.8257 23.0589C15.8916 22.9934 15.9576 22.9279 16.0237 22.8625C16.1752 22.7124 16.3261 22.5618 16.4749 22.409C16.5827 22.3037 16.692 22.2061 16.8064 22.1084C16.9761 21.9617 17.1121 21.809 17.2525 21.6344C17.3773 21.5033 17.5018 21.3854 17.6429 21.272C17.7643 21.1731 17.8639 21.0661 17.9651 20.9467C18.0831 20.8078 18.2039 20.6864 18.3431 20.5687C18.514 20.4238 18.6581 20.2674 18.8029 20.0968C18.939 19.9403 19.0873 19.7968 19.2353 19.6517C19.2696 19.6173 19.3039 19.583 19.3393 19.5476C19.5224 19.3644 19.7064 19.1822 19.8904 18.9998C20.3013 18.5921 20.7118 18.1839 21.1219 17.7754C21.3699 17.5284 21.618 17.2816 21.8666 17.0353C22.1075 16.7967 22.3478 16.5575 22.5878 16.318C22.6791 16.227 22.7707 16.1362 22.8624 16.0455C22.9908 15.9186 23.1185 15.791 23.2461 15.6633C23.284 15.6262 23.3218 15.5891 23.3608 15.5509C23.6448 15.2647 23.8654 14.9686 23.8998 14.5532C23.8847 14.2338 23.7785 13.9277 23.5478 13.7034C23.2814 13.4762 23.0336 13.3725 22.6804 13.3409C22.027 13.3993 21.5673 14.0411 21.1298 14.4819Z" fill="#46B26C"/>
<path d="M10.5266 0.211305C10.6213 0.262742 10.7153 0.315326 10.8085 0.369306C10.8458 0.390457 10.8832 0.411607 10.9216 0.433398C11.4145 0.726265 11.797 1.15411 12.1965 1.55896C12.1719 1.60804 12.1719 1.60804 12.1469 1.6581C12.106 1.61433 12.0651 1.57056 12.023 1.52547C11.4294 0.903552 10.6156 0.145428 9.70561 0.102873C9.43969 0.10854 9.26739 0.188205 9.0736 0.369306C8.7331 0.77777 8.40982 1.45552 8.45283 2.00334C8.5713 2.46395 8.97098 2.72277 9.33636 2.98541C10.2785 3.66358 11.0798 4.34193 11.7008 5.32622C11.7194 5.3557 11.738 5.38518 11.7572 5.41555C12.0569 5.89525 12.0569 5.89525 12.0973 6.16889C11.9372 6.03478 11.8604 5.85937 11.7689 5.6763C11.175 4.52934 10.2017 3.71231 9.16171 2.98369C8.47128 2.49934 8.47128 2.49934 8.34866 2.09183C8.26462 1.55342 8.56558 0.88192 8.86603 0.446758C9.31782 -0.115049 9.91387 -0.0911636 10.5266 0.211305Z" fill="#358A4B"/>
<path d="M23.8452 14.7939C23.8948 14.9426 23.8948 14.9426 23.8567 15.032C23.7012 15.2727 23.5312 15.4756 23.327 15.676C23.2959 15.7071 23.2648 15.7382 23.2328 15.7702C23.1311 15.8718 23.0289 15.9729 22.9266 16.074C22.8553 16.145 22.784 16.2161 22.7128 16.2872C22.5258 16.4736 22.3383 16.6596 22.1508 16.8455C21.9602 17.0345 21.7701 17.224 21.5799 17.4134C21.2727 17.7193 20.9653 18.0249 20.6575 18.3302C20.58 18.4072 20.5024 18.4841 20.4249 18.5611C20.3792 18.6065 20.3335 18.6519 20.2864 18.6987C20.1638 18.8224 20.0551 18.9534 19.9457 19.0888C19.9239 19.1109 19.9021 19.1331 19.8797 19.156C19.847 19.156 19.8143 19.156 19.7806 19.156C19.7478 19.2214 19.7151 19.2868 19.6814 19.3542C19.6487 19.3542 19.616 19.3542 19.5823 19.3542C19.6493 19.2045 19.7239 19.1015 19.8403 18.9865C19.8731 18.9539 19.9058 18.9213 19.9395 18.8877C19.9754 18.8525 20.0112 18.8173 20.0482 18.7811C20.086 18.7436 20.1238 18.706 20.1628 18.6674C20.2449 18.586 20.3272 18.5046 20.4095 18.4234C20.54 18.2947 20.6702 18.1656 20.8002 18.0363C21.17 17.669 21.5403 17.3022 21.911 16.9358C22.1378 16.7117 22.3642 16.4871 22.5902 16.2621C22.6763 16.1767 22.7625 16.0914 22.849 16.0063C22.9702 15.887 23.0908 15.7671 23.2113 15.647C23.2469 15.6123 23.2825 15.5776 23.3191 15.5418C23.5459 15.3141 23.7043 15.0827 23.8452 14.7939Z" fill="#338E4C"/>
<path d="M18.1944 20.6431C18.2271 20.6595 18.2598 20.6758 18.2935 20.6927C18.0398 21.0493 17.7511 21.367 17.4508 21.6841C17.4261 21.7105 17.4014 21.7368 17.376 21.764C17.3034 21.8412 17.2301 21.9177 17.1565 21.9939C17.1131 22.0391 17.0697 22.0844 17.025 22.131C16.9056 22.2293 16.9056 22.2293 16.7073 22.2293C16.7073 22.2621 16.7073 22.2948 16.7073 22.3285C16.6337 22.353 16.6337 22.353 16.5586 22.378C16.5989 22.282 16.5989 22.282 16.6577 22.1798C16.7068 22.1634 16.7559 22.1471 16.8064 22.1302C16.8228 22.0811 16.8392 22.0321 16.856 21.9815C16.9257 21.9234 16.9957 21.8655 17.0669 21.8092C17.1648 21.7238 17.2459 21.6312 17.33 21.5323C17.4585 21.3811 17.5913 21.2609 17.7483 21.1388C17.7759 21.102 17.8035 21.0652 17.8319 21.0273C17.8534 20.9987 17.8748 20.97 17.897 20.9405C17.9297 20.9405 17.9624 20.9405 17.9961 20.9405C18.0104 20.9099 18.0247 20.8792 18.0395 20.8476C18.0952 20.7423 18.0952 20.7423 18.1944 20.6431Z" fill="#4CBE74"/>
<path d="M14.5758 24.3608C14.5083 24.5172 14.4361 24.6052 14.3032 24.7109C14.1824 24.8073 14.1187 24.873 14.0306 25.0052C13.9978 25.0052 13.9651 25.0052 13.9314 25.0052C13.9151 25.0543 13.8987 25.1033 13.8818 25.1539C13.7955 25.2209 13.7955 25.2209 13.6898 25.284C13.6551 25.3051 13.6205 25.3262 13.5848 25.3479C13.3448 25.4777 13.1073 25.4808 12.8409 25.4513C12.4818 25.3279 12.4818 25.3279 12.3948 25.1539C12.4469 25.1754 12.4469 25.1754 12.5001 25.1973C12.5471 25.2157 12.5942 25.2341 12.6426 25.253C12.6866 25.2724 12.7305 25.2919 12.7758 25.3119C13.0266 25.3734 13.2952 25.3737 13.5302 25.2548C13.5996 25.207 13.6666 25.1559 13.7331 25.1043C13.7659 25.1043 13.7986 25.1043 13.8323 25.1043C13.8456 25.0747 13.8589 25.045 13.8726 25.0145C13.9314 24.9061 13.9857 24.836 14.0801 24.7573C14.1128 24.7573 14.1456 24.7573 14.1793 24.7573C14.1915 24.7287 14.2038 24.7001 14.2164 24.6706C14.2991 24.5218 14.3935 24.3608 14.5758 24.3608Z" fill="#328949"/>
<path d="M16.4595 22.378C16.4922 22.3943 16.5249 22.4107 16.5586 22.4276C16.2322 22.8111 15.8877 23.161 15.5051 23.4885C15.4093 23.5719 15.4093 23.5719 15.3101 23.704C15.2104 23.8277 15.1121 23.8905 14.9724 23.9642C15.0127 23.8682 15.0127 23.8682 15.0716 23.7659C15.1206 23.7496 15.1697 23.7332 15.2203 23.7164C15.2548 23.651 15.2876 23.5848 15.3194 23.5181C15.3769 23.4516 15.4371 23.3875 15.4991 23.3252C15.5341 23.2901 15.5691 23.2549 15.6052 23.2187C15.6417 23.1826 15.6783 23.1464 15.7159 23.1091C15.7525 23.0722 15.789 23.0353 15.8267 22.9972C15.8617 22.9623 15.8967 22.9274 15.9328 22.8915C15.9649 22.8595 15.997 22.8276 16.03 22.7946C16.1125 22.725 16.1125 22.725 16.2116 22.725C16.2249 22.6953 16.2382 22.6657 16.2519 22.6351C16.31 22.5281 16.3699 22.4594 16.4595 22.378Z" fill="#399753"/>
<path d="M19.2849 19.6517C19.3176 19.668 19.3503 19.6844 19.384 19.7012C19.3451 19.7396 19.3062 19.7779 19.2661 19.8174C19.007 20.0739 18.7545 20.3307 18.5183 20.6088C18.4044 20.7343 18.2783 20.8363 18.1448 20.9405C18.1675 20.8094 18.1861 20.7114 18.2439 20.5935C18.324 20.5461 18.4046 20.4994 18.4885 20.4591C18.6693 20.3463 18.7951 20.1794 18.9334 20.0194C19.0452 19.89 19.1621 19.7705 19.2849 19.6517Z" fill="#4BBB71"/>
<path d="M16.4099 22.5762C16.4099 22.7249 16.4099 22.7249 16.3052 22.8465C16.2574 22.8943 16.2091 22.9418 16.1605 22.9889C16.1352 23.014 16.1099 23.039 16.0838 23.0649C16.0028 23.145 15.9213 23.2247 15.8398 23.3043C15.7849 23.3585 15.73 23.4127 15.6751 23.467C15.5404 23.6001 15.4052 23.7327 15.2698 23.865C15.2371 23.8487 15.2044 23.8323 15.1707 23.8155C15.3545 23.5903 15.5433 23.397 15.7645 23.2088C15.9215 23.0719 16.0661 22.9234 16.2116 22.7745C16.2777 22.7084 16.3438 22.6423 16.4099 22.5762Z" fill="#4CBD73"/>
<path d="M17.9961 8.15161C18.0289 8.16797 18.0616 8.18433 18.0953 8.20118C17.7335 8.46743 17.7335 8.46743 17.55 8.54816C17.6155 8.56452 17.6809 8.58088 17.7483 8.59773C17.496 8.69953 17.2751 8.76784 17.0048 8.79601C17.0645 8.61683 17.0999 8.60778 17.2617 8.52261C17.3036 8.5005 17.3455 8.47839 17.3886 8.45561C17.4327 8.43299 17.4767 8.41037 17.5221 8.38706C17.5879 8.35198 17.5879 8.35198 17.6551 8.3162C17.8983 8.18948 17.8983 8.18948 17.9961 8.15161Z" fill="#369553"/>
<path d="M13.9314 4.88013C14.0305 4.9297 14.0305 4.9297 14.0691 5.03088C14.081 5.07423 14.093 5.11758 14.1053 5.16224C14.1184 5.20905 14.1315 5.25585 14.145 5.30408C14.1583 5.35331 14.1717 5.40254 14.1854 5.45327C14.1992 5.50269 14.2129 5.55212 14.2271 5.60304C14.261 5.72548 14.2947 5.84802 14.3279 5.97065C14.3607 5.92157 14.3934 5.8725 14.4271 5.82194C14.4598 5.82194 14.4925 5.82194 14.5262 5.82194C14.4333 6.10696 14.4333 6.10696 14.3775 6.21849C14.3448 6.21849 14.3121 6.21849 14.2784 6.21849C14.2202 6.02341 14.1625 5.8282 14.1049 5.63296C14.0883 5.57746 14.0718 5.52197 14.0547 5.46479C14.0391 5.4116 14.0234 5.3584 14.0073 5.30359C13.9928 5.25453 13.9782 5.20547 13.9632 5.15492C13.9314 5.02883 13.9314 5.02883 13.9314 4.88013Z" fill="#338C4D"/>
<path d="M19.4335 19.4038C19.4663 19.4202 19.499 19.4365 19.5327 19.4534C19.2683 19.7177 19.0039 19.9821 18.7396 20.2465C18.6961 20.291 18.6527 20.3354 18.6079 20.3812C18.4917 20.4943 18.4917 20.4943 18.343 20.5935C18.3757 20.528 18.4084 20.4626 18.4422 20.3952C18.4749 20.3952 18.5076 20.3952 18.5413 20.3952C18.5515 20.3689 18.5617 20.3425 18.5723 20.3154C18.6692 20.147 18.8001 20.0229 18.9378 19.8871C18.9649 19.8596 18.992 19.8322 19.0199 19.8038C19.2227 19.6021 19.2227 19.6021 19.3344 19.6021C19.3671 19.5367 19.3998 19.4712 19.4335 19.4038Z" fill="#369351"/>
<path d="M15.1211 23.8156C15.1374 23.8646 15.1538 23.9137 15.1706 23.9643C15.0234 24.1115 14.8762 24.2587 14.7245 24.4104C14.6754 24.3777 14.6264 24.3449 14.5758 24.3112C14.7394 24.1061 14.8818 23.9352 15.1211 23.8156Z" fill="#4ABA6F"/>
<path d="M14.5758 24.3608C14.5082 24.5172 14.4361 24.6052 14.3032 24.7109C14.1824 24.8073 14.1187 24.873 14.0306 25.0052C13.9978 25.0052 13.9651 25.0052 13.9314 25.0052C13.9151 25.0543 13.8987 25.1033 13.8818 25.1539C13.8655 25.1048 13.8491 25.0557 13.8323 25.0052C13.9127 24.9205 13.9955 24.8379 14.0801 24.7573C14.1128 24.7573 14.1456 24.7573 14.1793 24.7573C14.1915 24.7287 14.2038 24.7001 14.2164 24.6706C14.2991 24.5218 14.3935 24.3608 14.5758 24.3608Z" fill="#3A9955"/>
<path d="M20.3258 18.5116C20.3422 18.5607 20.3585 18.6097 20.3754 18.6603C20.3079 18.714 20.3079 18.714 20.2391 18.7687C20.1313 18.8577 20.0551 18.9367 19.9664 19.0476C19.9378 19.0833 19.9092 19.1191 19.8797 19.156C19.847 19.156 19.8143 19.156 19.7806 19.156C19.7478 19.2214 19.7151 19.2869 19.6814 19.3543C19.6487 19.3543 19.616 19.3543 19.5823 19.3543C19.6478 19.2089 19.7184 19.1071 19.8321 18.9957C19.8608 18.9672 19.8896 18.9388 19.9192 18.9095C19.9491 18.8804 19.979 18.8514 20.0098 18.8214C20.0401 18.7916 20.0704 18.7617 20.1016 18.731C20.1761 18.6576 20.2509 18.5846 20.3258 18.5116Z" fill="#389855"/>
<path d="M17.2526 21.5849C17.2853 21.5849 17.318 21.5849 17.3517 21.5849C17.2758 21.7649 17.1674 21.8816 17.0295 22.0186C16.9901 22.0582 16.9508 22.0979 16.9102 22.1387C16.8064 22.2293 16.8064 22.2293 16.7073 22.2293C16.7073 22.262 16.7073 22.2947 16.7073 22.3284C16.6582 22.3448 16.6092 22.3612 16.5586 22.378C16.5989 22.282 16.5989 22.282 16.6577 22.1797C16.7068 22.1634 16.7559 22.147 16.8064 22.1302C16.8228 22.0811 16.8392 22.032 16.856 21.9815C16.9543 21.8978 17.0535 21.8152 17.1534 21.7336C17.1861 21.6845 17.2189 21.6355 17.2526 21.5849Z" fill="#379651"/>
<path d="M20.2762 18.6603C20.309 18.6767 20.3417 18.6931 20.3754 18.7099C19.9089 19.2333 19.9089 19.2333 19.6814 19.4534C19.6487 19.4371 19.616 19.4207 19.5823 19.4039C19.7202 19.2251 19.8669 19.0658 20.0284 18.9082C20.0974 18.8392 20.0974 18.8392 20.1678 18.7688C20.2215 18.7151 20.2215 18.7151 20.2762 18.6603Z" fill="#4CBC72"/>
<path d="M14.5758 24.3608C14.6085 24.3608 14.6412 24.3608 14.6749 24.3608C14.5998 24.5392 14.494 24.6511 14.3558 24.7852C14.3171 24.8231 14.2783 24.861 14.2383 24.9C14.2025 24.9347 14.1666 24.9694 14.1297 25.0052C14.08 25.0546 14.0304 25.1042 13.981 25.1539C13.9483 25.1375 13.9155 25.1212 13.8818 25.1043C14.051 24.8875 14.2322 24.7113 14.4434 24.535C14.5316 24.4642 14.5316 24.4642 14.5758 24.3608Z" fill="#4DBE74"/>
<path d="M8.92493 18.5116C9.22953 18.6489 9.49745 18.9078 9.71803 19.156C9.71803 19.1887 9.71803 19.2214 9.71803 19.2551C9.68532 19.2551 9.6526 19.2551 9.61889 19.2551C9.61889 19.2224 9.61889 19.1897 9.61889 19.156C9.59155 19.1448 9.5642 19.1336 9.53602 19.1221C9.38594 19.0373 9.28117 18.9286 9.16038 18.8059C9.11616 18.7614 9.07195 18.7168 9.02639 18.671C8.92493 18.5612 8.92493 18.5612 8.92493 18.5116Z" fill="#3A9552"/>
<path d="M18.1943 20.6431C18.227 20.6595 18.2597 20.6758 18.2934 20.6927C18.2486 20.7582 18.203 20.8232 18.1571 20.8879C18.1318 20.9241 18.1065 20.9603 18.0804 20.9977C17.9865 21.0996 17.9328 21.1203 17.7977 21.1388C17.8304 21.0734 17.8632 21.008 17.8969 20.9405C17.9296 20.9405 17.9623 20.9405 17.996 20.9405C18.0175 20.8945 18.0175 20.8945 18.0394 20.8476C18.0951 20.7423 18.0951 20.7423 18.1943 20.6431Z" fill="#3EA15B"/>
<path d="M17.9961 8.15161C18.0288 8.16797 18.0615 8.18433 18.0952 8.20118C17.7063 8.49097 17.7063 8.49097 17.5004 8.54816C17.4513 8.53181 17.4022 8.51545 17.3517 8.49859C17.4568 8.43924 17.5621 8.38047 17.6677 8.32201C17.6976 8.30504 17.7275 8.28808 17.7583 8.2706C17.836 8.22788 17.9159 8.18942 17.9961 8.15161Z" fill="#318A49"/>
<path d="M17.7482 21.1388C17.7482 21.2875 17.7482 21.2875 17.6553 21.3959C17.55 21.4858 17.55 21.4858 17.4508 21.4858C17.4508 21.5185 17.4508 21.5512 17.4508 21.5849C17.4181 21.5686 17.3854 21.5522 17.3517 21.5353C17.5809 21.2503 17.5809 21.2503 17.7482 21.1388Z" fill="#379653"/>
<path d="M14.427 5.82184C14.4598 5.82184 14.4925 5.82184 14.5262 5.82184C14.4332 6.10686 14.4332 6.10686 14.3775 6.21839C14.3448 6.21839 14.312 6.21839 14.2783 6.21839C14.262 6.16932 14.2456 6.12024 14.2288 6.06968C14.3186 5.93647 14.3186 5.93647 14.427 5.82184Z" fill="#3A9D59"/>
<path d="M19.2849 1.95548C19.2141 1.99142 19.1427 2.02634 19.0711 2.06081C19.0314 2.08037 18.9918 2.09992 18.9509 2.12006C18.9139 2.13118 18.8769 2.1423 18.8388 2.15376C18.7897 2.12104 18.7406 2.08832 18.6901 2.05462C18.7611 2.02825 18.8324 2.00256 18.9038 1.97717C18.9435 1.96279 18.9832 1.94841 19.0241 1.9336C19.1362 1.90591 19.1362 1.90591 19.2849 1.95548Z" fill="#50C579"/>
<path d="M14.8732 23.9641C14.9059 23.9805 14.9387 23.9968 14.9724 24.0137C14.9042 24.1128 14.9042 24.1128 14.8237 24.212C14.7909 24.212 14.7582 24.212 14.7245 24.212C14.7082 24.261 14.6918 24.3101 14.6749 24.3607C14.6422 24.3443 14.6095 24.3279 14.5758 24.3111C14.674 24.1966 14.7721 24.0821 14.8732 23.9641Z" fill="#36924E"/>
<path d="M19.8798 33.085C20.0285 33.1345 20.0285 33.1345 20.0285 33.1345L19.8798 33.085Z" fill="#4FAF6B"/>
<path d="M18.4421 8.15161C18.5908 8.20118 18.5908 8.20118 18.5908 8.20118L18.4421 8.15161Z" fill="#52BA75"/>
<path d="M18.8387 1.80682C18.9875 1.85639 18.9875 1.85639 18.9875 1.85639L18.8387 1.80682Z" fill="#51B472"/>
<path d="M12.3452 33.085C12.4444 33.1345 12.4444 33.1345 12.4444 33.1345L12.3452 33.085Z" fill="#4EB26C"/>
<path d="M16.7073 32.9362C16.8064 32.9857 16.8064 32.9857 16.8064 32.9857L16.7073 32.9362Z" fill="#4FAF6C"/>
<path d="M17.8474 2.20343C17.9466 2.253 17.9466 2.253 17.9466 2.253L17.8474 2.20343Z" fill="#4FB470"/>
<path d="M50.7782 10.8943V26.4667H48.269L40.9314 15.8595H40.8021V26.4667H37.9811V10.8943H40.5056L47.8356 21.5091H47.9725V10.8943H50.7782ZM60.8533 21.5547V14.7874H63.6058V26.4667H60.9369V24.3909H60.8153C60.5517 25.0448 60.1182 25.5796 59.515 25.9953C58.9169 26.411 58.1793 26.6188 57.3023 26.6188C56.5369 26.6188 55.8601 26.449 55.2721 26.1094C54.6892 25.7647 54.2329 25.2653 53.9035 24.6114C53.574 23.9524 53.4092 23.1566 53.4092 22.2238V14.7874H56.1618V21.798C56.1618 22.5381 56.3645 23.1262 56.7701 23.5621C57.1756 23.9981 57.7079 24.216 58.3668 24.216C58.7724 24.216 59.1652 24.1172 59.5454 23.9195C59.9256 23.7218 60.2374 23.4278 60.4807 23.0374C60.7291 22.6421 60.8533 22.1478 60.8533 21.5547ZM71.9472 14.7874V16.9164H65.2331V14.7874H71.9472ZM66.8907 11.9892H69.6433V22.9538C69.6433 23.3239 69.699 23.6077 69.8106 23.8054C69.9271 23.9981 70.0792 24.1299 70.2668 24.2008C70.4543 24.2718 70.6622 24.3073 70.8903 24.3073C71.0626 24.3073 71.2198 24.2946 71.3617 24.2693C71.5087 24.2439 71.6202 24.2211 71.6963 24.2008L72.1601 26.3527C72.0131 26.4034 71.8027 26.4591 71.529 26.52C71.2603 26.5808 70.9308 26.6163 70.5405 26.6264C69.8511 26.6467 69.2301 26.5428 68.6776 26.3147C68.1251 26.0815 67.6866 25.7216 67.3621 25.2349C67.0428 24.7483 66.8856 24.14 66.8907 23.41V11.9892ZM73.9281 26.4667V14.7874H76.597V16.7339H76.7186C76.9315 16.0598 77.2965 15.5402 77.8136 15.1752C78.3357 14.8051 78.9313 14.6201 79.6004 14.6201C79.7525 14.6201 79.9223 14.6277 80.1099 14.6429C80.3025 14.6531 80.4622 14.6708 80.5889 14.6961V17.2282C80.4723 17.1876 80.2873 17.1522 80.0339 17.1217C79.7855 17.0863 79.5447 17.0685 79.3115 17.0685C78.8097 17.0685 78.3585 17.1775 77.958 17.3955C77.5626 17.6084 77.2509 17.9049 77.0228 18.2851C76.7947 18.6653 76.6806 19.1038 76.6806 19.6006V26.4667H73.9281ZM82.0964 26.4667V14.7874H84.849V26.4667H82.0964ZM83.4803 13.1298C83.0444 13.1298 82.6693 12.9853 82.355 12.6964C82.0407 12.4024 81.8835 12.05 81.8835 11.6394C81.8835 11.2238 82.0407 10.8715 82.355 10.5825C82.6693 10.2885 83.0444 10.1415 83.4803 10.1415C83.9213 10.1415 84.2965 10.2885 84.6057 10.5825C84.92 10.8715 85.0771 11.2238 85.0771 11.6394C85.0771 12.05 84.92 12.4024 84.6057 12.6964C84.2965 12.9853 83.9213 13.1298 83.4803 13.1298Z" fill="#46B26C"/>
<path d="M100.809 16.1485H97.9655C97.8844 15.6821 97.7349 15.269 97.5169 14.9091C97.2989 14.5441 97.0277 14.2349 96.7033 13.9814C96.3789 13.7279 96.0088 13.5378 95.5932 13.4111C95.1826 13.2793 94.739 13.2134 94.2625 13.2134C93.416 13.2134 92.6657 13.4263 92.0118 13.8521C91.3579 14.2729 90.8459 14.8913 90.4758 15.7074C90.1058 16.5185 89.9208 17.5095 89.9208 18.6805C89.9208 19.8718 90.1058 20.8755 90.4758 21.6916C90.851 22.5027 91.3629 23.116 92.0118 23.5317C92.6657 23.9423 93.4134 24.1476 94.2549 24.1476C94.7213 24.1476 95.1572 24.0868 95.5627 23.9651C95.9733 23.8384 96.3409 23.6534 96.6653 23.41C96.9948 23.1667 97.271 22.8676 97.4941 22.5128C97.7222 22.158 97.8793 21.7524 97.9655 21.2962L100.809 21.3114C100.703 22.0515 100.472 22.746 100.117 23.3948C99.7676 24.0437 99.3089 24.6165 98.7411 25.1133C98.1734 25.605 97.5093 25.9902 96.7489 26.269C95.9886 26.5428 95.1445 26.6796 94.2169 26.6796C92.8482 26.6796 91.6265 26.3628 90.5519 25.7292C89.4772 25.0955 88.6307 24.1805 88.0122 22.9842C87.3938 21.7879 87.0846 20.3533 87.0846 18.6805C87.0846 17.0026 87.3963 15.568 88.0198 14.3768C88.6433 13.1805 89.4924 12.2655 90.5671 11.6318C91.6417 10.9982 92.8583 10.6814 94.2169 10.6814C95.0837 10.6814 95.8897 10.803 96.6349 11.0464C97.38 11.2897 98.0441 11.647 98.627 12.1185C99.21 12.5848 99.689 13.1577 100.064 13.8369C100.444 14.5111 100.693 15.2816 100.809 16.1485ZM108.044 26.6948C106.904 26.6948 105.915 26.4439 105.079 25.9421C104.242 25.4402 103.594 24.7382 103.132 23.8358C102.676 22.9335 102.448 21.8791 102.448 20.6727C102.448 19.4662 102.676 18.4093 103.132 17.5019C103.594 16.5945 104.242 15.8899 105.079 15.3881C105.915 14.8862 106.904 14.6353 108.044 14.6353C109.185 14.6353 110.173 14.8862 111.01 15.3881C111.846 15.8899 112.493 16.5945 112.949 17.5019C113.41 18.4093 113.641 19.4662 113.641 20.6727C113.641 21.8791 113.41 22.9335 112.949 23.8358C112.493 24.7382 111.846 25.4402 111.01 25.9421C110.173 26.4439 109.185 26.6948 108.044 26.6948ZM108.06 24.4898C108.678 24.4898 109.195 24.3199 109.611 23.9803C110.026 23.6356 110.336 23.1743 110.538 22.5964C110.746 22.0185 110.85 21.3748 110.85 20.6651C110.85 19.9503 110.746 19.304 110.538 18.7261C110.336 18.1432 110.026 17.6793 109.611 17.3346C109.195 16.9899 108.678 16.8176 108.06 16.8176C107.426 16.8176 106.899 16.9899 106.478 17.3346C106.062 17.6793 105.751 18.1432 105.543 18.7261C105.34 19.304 105.239 19.9503 105.239 20.6651C105.239 21.3748 105.34 22.0185 105.543 22.5964C105.751 23.1743 106.062 23.6356 106.478 23.9803C106.899 24.3199 107.426 24.4898 108.06 24.4898ZM115.656 26.4667V14.7874H118.325V16.7339H118.446C118.659 16.0598 119.024 15.5402 119.541 15.1752C120.063 14.8051 120.659 14.6201 121.328 14.6201C121.48 14.6201 121.65 14.6277 121.838 14.6429C122.03 14.6531 122.19 14.6708 122.317 14.6961V17.2282C122.2 17.1876 122.015 17.1522 121.762 17.1217C121.513 17.0863 121.272 17.0685 121.039 17.0685C120.537 17.0685 120.086 17.1775 119.686 17.3955C119.29 17.6084 118.979 17.9049 118.75 18.2851C118.522 18.6653 118.408 19.1038 118.408 19.6006V26.4667H115.656ZM128.514 26.6948C127.343 26.6948 126.332 26.4515 125.48 25.9649C124.633 25.4732 123.982 24.7787 123.526 23.8815C123.07 22.9792 122.841 21.9172 122.841 20.6955C122.841 19.4941 123.07 18.4397 123.526 17.5323C123.987 16.6199 124.631 15.9102 125.457 15.4033C126.283 14.8913 127.254 14.6353 128.369 14.6353C129.089 14.6353 129.768 14.7519 130.407 14.9851C131.051 15.2132 131.619 15.568 132.11 16.0496C132.607 16.5312 132.997 17.1446 133.281 17.8897C133.565 18.6298 133.707 19.5118 133.707 20.5358V21.3798H124.134V19.5245H131.069C131.064 18.9973 130.95 18.5284 130.726 18.1178C130.503 17.7022 130.192 17.3752 129.791 17.1369C129.396 16.8987 128.935 16.7796 128.407 16.7796C127.845 16.7796 127.35 16.9164 126.925 17.1902C126.499 17.4588 126.167 17.8137 125.929 18.2547C125.695 18.6906 125.576 19.1697 125.571 19.6918V21.3114C125.571 21.9907 125.695 22.5736 125.944 23.0603C126.192 23.5418 126.539 23.9119 126.985 24.1704C127.432 24.4239 127.954 24.5506 128.552 24.5506C128.952 24.5506 129.315 24.4948 129.639 24.3833C129.964 24.2667 130.245 24.0969 130.483 23.8739C130.721 23.6508 130.901 23.3745 131.023 23.0451L133.593 23.334C133.431 24.0133 133.122 24.6064 132.665 25.1133C132.214 25.6151 131.636 26.0054 130.932 26.2842C130.227 26.558 129.421 26.6948 128.514 26.6948Z" fill="#318A49"/>
</svg>
