<svg width="140" height="140" viewBox="0 0 140 140" fill="none" xmlns="http://www.w3.org/2000/svg">
<path d="M64.0523 139.262C102.441 142.41 136.113 113.842 139.262 75.4537C142.41 37.0651 113.842 3.39257 75.4536 0.244168C37.065 -2.90423 3.39263 25.6637 0.244234 64.0523C-2.9042 102.441 25.6636 136.113 64.0523 139.262Z" fill="#FFC7AA"/>
<mask id="mask0_181_3186" style="mask-type:luminance" maskUnits="userSpaceOnUse" x="0" y="0" width="140" height="140">
<path d="M138.57 81.0724C144.822 43.0656 119.079 7.18715 81.0725 0.935449C43.0657 -5.31616 7.18707 20.4264 0.935466 58.4332C-5.31621 96.4399 20.4265 132.319 58.4333 138.57C96.4401 144.822 132.319 119.079 138.57 81.0724Z" fill="white"/>
</mask>
<g mask="url(#mask0_181_3186)">
<path d="M123.188 138.852H1.34937C1.34937 138.852 4.23837 109.537 17.4564 100.034C25.3564 94.3609 35.9444 90.7709 43.1724 88.8129C48.0394 87.4789 51.3794 86.8929 51.3794 86.8929L78.3234 88.0349C78.3234 88.0349 81.4724 88.6109 85.9454 89.9359C91.551 91.5969 99.23 94.4379 105.421 98.7959C116.574 106.648 123.188 138.852 123.188 138.852Z" fill="#4D7D80"/>
<path d="M78.6094 81.2379L78.3214 88.0359C77.4994 88.6449 76.6714 89.1699 75.8434 89.6199C63.7394 96.2089 51.3774 86.8949 51.3774 86.8949L52.3754 63.3259L75.4804 79.1029L78.6094 81.2379Z" fill="#E69680"/>
<path d="M78.6095 81.2379L78.3215 88.0359C77.4995 88.6449 76.6715 89.1699 75.8435 89.6199C65.9615 85.2159 59.0925 74.3599 59.0925 74.3599L75.4805 79.1019L78.6095 81.2379Z" fill="#302922"/>
<path d="M88.3804 51.472C88.3804 51.472 92.434 47.074 94.423 51.728C96.412 56.382 94.343 65.543 88.5314 63.784L88.3804 51.472Z" fill="#E06C5C"/>
<path d="M93.327 32.284C93.327 32.284 97.742 34.062 95.598 39.085C93.453 44.108 93.606 45.149 94.17 48.292C94.734 51.435 92.131 53.875 91.236 53.528C90.341 53.18 82.6975 29.675 93.327 32.284Z" fill="#302922"/>
<path d="M91.8199 67.6419C91.8199 67.6419 91.2449 81.6969 76.6283 81.0459C62.1013 80.4029 52.6843 68.5749 52.1913 68.0249C52.1833 68.0159 52.1763 68.011 52.1763 68.011L52.1423 65.0499L51.9653 49.6839L51.8703 41.471C51.8703 41.471 50.6393 26.637 64.7763 24.541C75.1043 23.008 84.6403 25.1169 89.2613 30.6669C89.4103 30.8459 89.5553 31.029 89.6899 31.217C91.1369 33.16 92.0109 35.492 92.1579 38.205L91.9879 52.9429L91.9469 56.5549L91.8199 67.6419Z" fill="#E69680"/>
<path d="M80.7943 64.262C80.1513 64.292 79.4303 64.238 78.6273 64.064C74.4743 63.16 71.7103 59.449 71.5953 59.291C71.4183 59.05 71.4703 58.712 71.7113 58.535C71.9523 58.358 72.2903 58.41 72.4673 58.65C72.4933 58.685 75.1123 62.19 78.8573 63.006C82.5673 63.813 84.1673 61.619 84.1833 61.596C84.3563 61.351 84.6933 61.294 84.9373 61.466C85.1813 61.638 85.2393 61.976 85.0673 62.22C85.0003 62.314 83.6803 64.128 80.7943 64.262Z" fill="#302922"/>
<path d="M81.3842 67.4589C81.6602 67.3089 81.8253 67.1919 81.8523 67.1729C82.1733 66.9419 82.2453 66.4939 82.0143 66.1729C81.7843 65.8529 81.3393 65.7769 81.0173 66.0099C80.9223 66.0769 78.8023 67.5429 76.4723 66.3429C76.1203 66.1619 75.6893 66.2999 75.5083 66.6519C75.3273 67.0039 75.4653 67.4349 75.8173 67.6159C78.2313 68.8599 80.4472 67.9679 81.3842 67.4589Z" fill="#E06C5C"/>
<path d="M82.0064 57.648C80.6924 57.42 79.2564 56.898 78.4514 56.579C78.1554 56.461 78.0104 56.126 78.1274 55.829C78.2454 55.532 78.5854 55.385 78.8774 55.505C81.0534 56.367 83.4294 56.857 83.7674 56.512C83.7644 56.512 83.7704 56.463 83.7484 56.37C82.6444 51.511 80.1574 50.9251 80.1324 50.9191C79.8594 50.8611 79.6594 50.614 79.6684 50.335L79.8074 45.8301C79.8174 45.5111 80.0834 45.2609 80.4024 45.2699C80.7134 45.2799 80.9724 45.546 80.9614 45.865L80.8354 49.943C81.7864 50.349 83.8764 51.7201 84.8744 56.1121C85.0344 56.8191 84.7194 57.2151 84.5174 57.3881C84.0114 57.8261 83.0474 57.829 82.0064 57.648Z" fill="#302922"/>
<path d="M65.5273 40.7419C66.1993 42.4169 68.0883 43.2459 69.7743 42.6039C70.7593 42.2289 71.9173 41.8679 73.1303 41.6579C74.8513 41.3589 75.9773 39.6889 75.5863 37.9869C75.5863 37.9869 68.8073 37.0749 65.5273 40.7419Z" fill="#302922"/>
<path d="M91.963 41.8619C91.152 43.4739 89.2003 44.1399 87.5743 43.3579C86.6253 42.9009 85.5013 42.444 84.3103 42.131C82.6213 41.688 81.6403 39.929 82.1733 38.265C82.1733 38.265 89.0043 37.9299 91.963 41.8619Z" fill="#302922"/>
<path d="M70.5915 48.209C70.5315 49.614 69.8465 50.727 69.0595 50.693C68.2735 50.66 67.6835 49.494 67.7435 48.088C67.8035 46.683 68.4885 45.57 69.2755 45.604C70.0625 45.638 70.6515 46.804 70.5915 48.209Z" fill="#302922"/>
<path d="M85.3884 48.798C85.3284 50.203 84.6435 51.316 83.8565 51.282C83.0705 51.249 82.4814 50.083 82.5404 48.677C82.6004 47.272 83.2854 46.159 84.0724 46.193C84.8584 46.227 85.4474 47.393 85.3884 48.798Z" fill="#302922"/>
<path d="M57.0083 62.5159C56.9353 62.6689 54.9033 66.8819 52.1903 68.0249C52.1823 68.0159 52.1763 68.0099 52.1763 68.0099L52.1433 65.0499C52.1433 65.0499 54.4683 64.7539 57.0083 62.5159Z" fill="#302922"/>
<path d="M54.8474 52.6469C54.8474 52.6469 49.5474 44.861 45.1804 50.618C41.5804 55.362 47.4554 68.371 54.3544 64.291L54.8474 52.6469Z" fill="#E69680"/>
<path d="M53.6824 61.9859C53.7034 61.9869 53.7244 61.9859 53.7454 61.9849C54.0644 61.9639 54.3054 61.6879 54.2844 61.3689C53.8544 54.9199 48.5464 52.4679 48.3204 52.3669C48.0284 52.2359 47.6864 52.3669 47.5554 52.6589C47.4244 52.9499 47.5544 53.2919 47.8454 53.4229C48.0454 53.5139 52.7464 55.7079 53.1294 61.4469C53.1504 61.7439 53.3914 61.9739 53.6824 61.9859Z" fill="#302922"/>
<path d="M48.4353 58.252C48.5633 58.257 48.6943 58.2209 48.8053 58.1379C49.3253 57.7519 50.8923 56.8149 51.8783 57.1119C52.1843 57.2039 52.5073 57.0309 52.5993 56.7249C52.6913 56.4189 52.5183 56.0959 52.2123 56.0039C50.4943 55.4859 48.3523 57.0309 48.1133 57.2099C47.8573 57.4009 47.8043 57.7629 47.9953 58.0199C48.1043 58.1649 48.2673 58.245 48.4353 58.252Z" fill="#302922"/>
<path d="M62.3454 36.1849C62.3454 36.1849 62.1394 39.0699 60.5974 42.8209C59.0544 46.5719 56.6894 46.4809 56.5864 48.7379C56.4834 50.9949 57.6384 53.8749 57.0094 54.1829C56.3804 54.4919 55.5584 54.7999 55.5584 54.7999C55.5584 54.7999 52.6844 50.1399 51.9664 49.6839C51.2494 49.2269 49.7724 48.2129 48.5644 48.5059C48.5644 48.5059 46.4024 48.3359 44.6554 51.5169C44.6554 51.5169 43.1104 49.3099 44.0894 46.1929C45.0684 43.0759 46.5734 44.1139 46.4894 40.9719C46.4054 37.8309 46.6114 37.3159 46.6114 37.3159L62.3454 36.1849Z" fill="#302922"/>
<path d="M61.2904 36.1219C61.2904 36.1219 47.2264 37.8299 46.6094 37.3159C45.9924 36.8019 47.6374 22.4029 53.5004 17.7749C59.3624 13.1469 73.5204 12.3239 82.5364 15.3069C91.5529 18.2899 93.306 31.2649 93.306 31.2649L61.2904 36.1219Z" fill="#9E3838"/>
<path d="M59.9283 36.1849C59.9283 36.1849 69.0023 40.71 74.6723 40.899C80.3433 41.087 86.9253 36.8009 93.3699 38.2579C99.8149 39.7159 100.912 41.807 102.832 40.899C104.752 39.99 95.0059 30.354 87.6063 29.001C80.2053 27.649 57.3943 34.8029 59.9283 36.1849Z" fill="#FFF4E6"/>
<path d="M49.6265 81.9899C49.6265 81.9899 53.0635 83.6109 59.0925 90.7349C65.1215 97.8589 64.9925 108.143 64.9925 108.143L43.1575 88.8079C43.1575 88.8079 46.1985 83.3989 49.6265 81.9899Z" fill="#FFF4E6"/>
<path d="M64.9904 108.146V138.853H1.34937C1.34937 138.853 4.23837 109.538 17.4564 100.035C25.3564 94.362 35.9444 90.772 43.1724 88.814L64.9904 108.146Z" fill="#312A45"/>
<path d="M78.3693 86.8929L77.7373 107.045C77.7373 107.045 85.7793 98.4719 85.9403 89.9369C85.9403 89.9369 83.3043 83.0449 78.5323 83.0469L78.3693 86.8929Z" fill="#FFF4E6"/>
<path d="M123.188 138.852H79.6573C79.1103 128.831 77.7373 107.041 77.7373 107.041L85.9443 89.9359C91.55 91.5969 99.229 94.4379 105.42 98.7959C116.574 106.648 123.188 138.852 123.188 138.852Z" fill="#312A45"/>
</g>
</svg>
