<?xml version="1.0" encoding="UTF-8"?>
<!DOCTYPE svg PUBLIC "-//W3C//DTD SVG 1.1//EN" "http://www.w3.org/Graphics/SVG/1.1/DTD/svg11.dtd">
<svg xmlns="http://www.w3.org/2000/svg" version="1.1" width="512px" height="512px" style="shape-rendering:geometricPrecision; text-rendering:geometricPrecision; image-rendering:optimizeQuality; fill-rule:evenodd; clip-rule:evenodd" xmlns:xlink="http://www.w3.org/1999/xlink">
<g><path style="opacity:0.961" fill="#000000" d="M 258.5,140.5 C 255.482,140.704 252.482,141.037 249.5,141.5C 246.048,127.687 243.548,113.687 242,99.5C 228.577,51.8589 197.077,29.3589 147.5,32C 115.651,37.8361 93.4848,55.6694 81,85.5C 76.8313,107.671 71.8313,129.671 66,151.5C 63.5297,158.578 60.863,165.578 58,172.5C 50.8039,186.226 44.1372,200.226 38,214.5C 23.3313,265.281 34.1646,309.614 70.5,347.5C 104.414,378.574 144.08,389.574 189.5,380.5C 189.111,383.553 189.777,386.22 191.5,388.5C 192.092,391.127 192.425,393.794 192.5,396.5C 132.2,407.462 82.7,389.462 44,342.5C 12.6394,297.277 6.97274,248.943 27,197.5C 40.1938,175.247 49.8605,151.58 56,126.5C 58.279,114.88 60.279,103.214 62,91.5C 76.5182,43.1531 109.018,17.8198 159.5,15.5C 209.982,17.8198 242.482,43.1531 257,91.5C 259.387,107.267 262.22,122.933 265.5,138.5C 263.035,138.767 260.701,139.434 258.5,140.5 Z"/></g>
<g><path style="opacity:0.973" fill="#010200" d="M 210.5,382.5 C 204.553,351.521 207.72,321.521 220,292.5C 239.278,259.332 250.945,223.665 255,185.5C 257.822,176.529 261.322,167.863 265.5,159.5C 283.497,130.82 309.497,114.82 343.5,111.5C 345.93,86.3118 354.763,63.6452 370,43.5C 374.635,37.0325 379.802,31.0325 385.5,25.5C 389.795,29.1248 393.795,32.9581 397.5,37C 394.847,40.3222 392.18,43.6556 389.5,47C 445.674,57.1739 480.508,90.0072 494,145.5C 495.831,154.891 495.831,164.224 494,173.5C 493.25,174.126 492.416,174.626 491.5,175C 485.167,175.667 478.833,175.667 472.5,175C 461.889,173.428 451.556,171.095 441.5,168C 443.718,171.984 445.551,176.15 447,180.5C 449.989,194.1 452.656,207.767 455,221.5C 461.663,247.497 471.663,272.163 485,295.5C 505.401,351.05 497.067,401.717 460,447.5C 420.764,488.243 373.264,503.076 317.5,492C 260.735,476.069 225.069,439.569 210.5,382.5 Z M 382.5,115.5 C 375.288,113.531 367.954,112.197 360.5,111.5C 361.185,100.275 364.018,89.6088 369,79.5C 372.13,92.0795 376.63,104.08 382.5,115.5 Z"/></g>
<g><path style="opacity:1" fill="#65924b" d="M 258.5,140.5 C 259.566,142.701 260.233,145.035 260.5,147.5C 244.804,196.892 219.304,240.558 184,278.5C 151.282,310.08 113.448,333.08 70.5,347.5C 34.1646,309.614 23.3313,265.281 38,214.5C 44.1372,200.226 50.8039,186.226 58,172.5C 60.863,165.578 63.5297,158.578 66,151.5C 71.8313,129.671 76.8313,107.671 81,85.5C 93.4848,55.6694 115.651,37.8361 147.5,32C 197.077,29.3589 228.577,51.8589 242,99.5C 243.548,113.687 246.048,127.687 249.5,141.5C 252.482,141.037 255.482,140.704 258.5,140.5 Z"/></g>
<g><path style="opacity:1" fill="#78ab53" d="M 468.5,121.5 C 467.848,122.725 466.681,123.392 465,123.5C 442.658,121.622 420.825,117.289 399.5,110.5C 390.511,96.5316 385.511,81.1983 384.5,64.5C 422.835,68.5365 450.835,87.5365 468.5,121.5 Z"/></g>
<g><path style="opacity:1" fill="#70a34d" d="M 399.5,110.5 C 420.825,117.289 442.658,121.622 465,123.5C 466.681,123.392 467.848,122.725 468.5,121.5C 475.061,132.866 478.394,145.199 478.5,158.5C 444.122,155.488 417.789,139.488 399.5,110.5 Z"/></g>
<g><path style="opacity:1" fill="#9aba4f" d="M 339.5,127.5 C 381.995,125.153 412.161,143.153 430,181.5C 434.09,201.233 438.424,220.899 443,240.5C 446.11,250.717 449.777,260.717 454,270.5C 460.272,282.711 466.272,295.044 472,307.5C 486.401,352.821 479.401,394.488 451,432.5C 413.661,473.942 367.828,487.776 313.5,474C 250.738,449.855 220.905,404.022 224,336.5C 226.781,315.94 233.781,296.94 245,279.5C 258.645,250.256 267.311,219.59 271,187.5C 282.532,154.461 305.365,134.461 339.5,127.5 Z"/></g>
<g><path style="opacity:1" fill="#628e42" d="M 260.5,147.5 C 262.167,151.5 263.833,155.5 265.5,159.5C 261.322,167.863 257.822,176.529 255,185.5C 250.945,223.665 239.278,259.332 220,292.5C 207.72,321.521 204.553,351.521 210.5,382.5C 204.209,384.656 197.875,386.656 191.5,388.5C 189.777,386.22 189.111,383.553 189.5,380.5C 144.08,389.574 104.414,378.574 70.5,347.5C 113.448,333.08 151.282,310.08 184,278.5C 219.304,240.558 244.804,196.892 260.5,147.5 Z"/></g>
<g><path style="opacity:1" fill="#fdda6c" d="M 341.5,151.5 C 374.593,149.459 397.093,163.792 409,194.5C 412.042,217.713 417.376,240.38 425,262.5C 433.135,282.1 441.801,301.434 451,320.5C 462.898,370.5 448.064,410.333 406.5,440C 359.657,465.216 316.657,460.049 277.5,424.5C 248.329,392.499 240.496,355.832 254,314.5C 268.88,288.739 279.88,261.405 287,232.5C 289.49,221.239 291.49,209.905 293,198.5C 300.196,173.469 316.363,157.802 341.5,151.5 Z"/></g>
<g><path style="opacity:1" fill="#030402" d="M 80.5,157.5 C 85.5,158.833 90.5,160.167 95.5,161.5C 94.6888,167.601 92.6888,173.268 89.5,178.5C 84.5489,176.53 79.8822,174.197 75.5,171.5C 77.5717,166.95 79.2383,162.283 80.5,157.5 Z"/></g>
<g><path style="opacity:1" fill="#010201" d="M 68.5,188.5 C 73.4235,190.295 78.0901,192.628 82.5,195.5C 74.4684,208.23 68.6351,221.896 65,236.5C 62.6835,253.021 63.5168,269.355 67.5,285.5C 62.5,286.833 57.5,288.167 52.5,289.5C 42.5951,253.367 47.9284,219.701 68.5,188.5 Z"/></g>
<g><path style="opacity:1" fill="#040301" d="M 428.5,330.5 C 436.552,367.518 425.219,397.018 394.5,419C 374.466,431.173 353.132,434.34 330.5,428.5C 293.138,416.327 273.471,390.494 271.5,351C 274.443,310.392 295.443,284.392 334.5,273C 371.716,267.499 400.549,280.332 421,311.5C 424.074,317.641 426.574,323.974 428.5,330.5 Z"/></g>
<g><path style="opacity:1" fill="#915539" d="M 403.5,314.5 C 403.657,315.873 403.49,317.207 403,318.5C 379.437,350.734 350.27,376.567 315.5,396C 313.35,397.411 311.016,398.245 308.5,398.5C 294.655,385.835 287.655,370.001 287.5,351C 289.733,319.204 306.067,298.538 336.5,289C 357.166,284.892 375.833,289.226 392.5,302C 396.747,305.742 400.414,309.908 403.5,314.5 Z"/></g>
<g><path style="opacity:1" fill="#864f35" d="M 403.5,314.5 C 419.193,338.895 419.36,363.561 404,388.5C 383.669,413.294 358.169,420.794 327.5,411C 320.178,408.149 313.844,403.982 308.5,398.5C 311.016,398.245 313.35,397.411 315.5,396C 350.27,376.567 379.437,350.734 403,318.5C 403.49,317.207 403.657,315.873 403.5,314.5 Z"/></g>
<g><path style="opacity:1" fill="#f4cc58" d="M 428.5,330.5 C 442.663,354.28 443.163,378.613 430,403.5C 406.848,436.994 376.014,446.827 337.5,433C 334.686,431.946 332.353,430.446 330.5,428.5C 353.132,434.34 374.466,431.173 394.5,419C 425.219,397.018 436.552,367.518 428.5,330.5 Z"/></g>
</svg>
